<?xml version="1.0" standalone="no"?>
<!DOCTYPE svg PUBLIC "-//W3C//DTD SVG 1.1//EN" "http://www.w3.org/Graphics/SVG/1.1/DTD/svg11.dtd" >
<svg xmlns="http://www.w3.org/2000/svg">
<metadata>Generated by IcoMoon</metadata>
<defs>
<font id="journeys" horiz-adv-x="1024">
<font-face units-per-em="1024" ascent="960" descent="-64" />
<missing-glyph horiz-adv-x="1024" />
<glyph unicode="&#x20;" horiz-adv-x="512" d="" />
<glyph unicode="&#xe900;" glyph-name="Egg, stripes" d="M511.969 857.6c-169.636 0-307.169-229.233-307.169-512h0.072c0-169.667 137.533-307.2 307.159-307.2 169.636 0 307.169 137.533 307.169 307.2-0.031 282.767-137.574 512-307.231 512zM298.004 240.097c183.327 58.040 331.366 194.898 403.927 371.302 17.736-42.465 31.468-91.535 39.844-146.063-86.538-140.698-217.836-250.307-374.374-309.463-29.174 22.292-53.002 51.057-69.396 84.224zM658.432 692.47c-54.702-184.33-198.564-329.82-381.635-387.502-2.263 13.23-3.697 26.767-3.697 40.632 0 22.702 1.27 44.964 3.133 67 152.535 59.597 267.039 195.205 296.54 360.468 30.454-15.964 59.822-43.264 85.658-80.599zM505.733 788.603c-22.026-129.669-104.96-238.234-218.399-295.803 13.24 67.297 35.441 128.799 65.966 179.732 25.467 42.404 78.705 112.169 152.433 116.070zM512.031 106.67c-22.057 0-43.356 3.226-63.631 8.858 119.101 55.644 222.669 138.732 302.234 241.633 0.041-3.901 0.338-7.619 0.338-11.561 0-131.727-107.203-238.93-238.94-238.93z" />
<glyph unicode="&#xe901;" glyph-name="Circus, tent" d="M887.47 516.27c-133.274 0-253.942 83.272-341.34 170.67v68.26h102.4l-34.13 102.4h-136.53v-170.67c-87.398-87.398-208.067-170.67-341.34-170.67v-68.26h68.27c0-144.998-24.504-283.402-68.27-409.6h239.872c60.129 60.099 106.465 133.632 135.598 215.296 29.133-81.664 75.5-155.197 135.598-215.296h239.872c-43.766 126.198-68.27 264.602-68.27 409.6h68.27v68.27zM346.266 106.67h-117.996c29.501 110.356 44.8 224.727 44.8 341.33h204.8c0-127.365-46.868-247.327-131.604-341.33zM795.73 106.67h-117.996c-84.736 94.003-131.604 213.965-131.604 341.33h204.8c0-116.603 15.299-230.973 44.8-341.33zM369.971 516.27c54.999 32 102.994 71.199 142.029 108.595 39.066-37.376 87.071-76.595 142.070-108.595h-284.099z" />
<glyph unicode="&#xe902;" glyph-name="Barrel, keg, beer" d="M921.6 724.664c-216.125 89.518-448.133 82.903-648.53-0.061v-276.603h-34.14c-24.996 0-48.128-7.199-68.26-18.924v87.194h-68.27v-204.79h68.27c0 37.704 30.556 68.26 68.26 68.26h34.14l-0.041-140.134c22.6-9.38 45.404-17.439 68.301-24.699v-108.237h68.27v89.6c126.198-28.805 254.228-27.535 375.47 0.164v-89.764h68.26v108.247c23.071 7.342 45.865 15.483 68.239 24.74l0.031 485.007zM341.33 677.591c22.497 7.854 45.302 14.438 68.27 20.163v-431.36c-22.968 5.724-45.804 12.319-68.301 20.204l0.031 390.994zM596.797 243.2c-40.028 0-79.698 3.42-118.927 9.523v458.721c39.526 6.154 79.565 9.615 119.962 9.615 40.069 0 79.739-3.43 118.968-9.554v-458.691c-39.567-6.154-79.596-9.615-120.003-9.615zM853.299 286.659c-22.497-7.864-45.271-14.438-68.229-20.163v431.35c22.958-5.734 45.763-12.319 68.26-20.183l-0.031-391.004z" />
<glyph unicode="&#xe903;" glyph-name="Pumpkin, halloween" d="M682.67 652.831h-136.54v34.109c0 46.234 18.002 89.702 50.739 122.399l-48.271 48.261c-43.704-43.663-70.728-103.997-70.728-170.67v-34.068h-136.54c-131.932 0-238.93-137.503-238.93-307.2 0-169.636 106.998-307.2 238.93-307.2l341.34-0.061c131.932 0 238.93 137.533 238.93 307.2 0 169.626-106.998 307.231-238.93 307.231zM341.33 106.732c-92.529 0-170.66 109.445-170.66 238.94s78.131 238.93 170.66 238.93h18.34c-32.543-36.27-52.47-83.999-52.47-136.53v-136.54c0-81.664 27.003-154.757 69.632-204.8h-35.502zM512 106.732c-74.004 0-136.53 93.798-136.53 204.8v136.54c0 75.305 61.256 136.53 136.53 136.53 75.305 0 136.53-61.225 136.53-136.53v-136.54c0-111.002-62.525-204.8-136.53-204.8zM682.67 106.67h-35.574c42.629 50.033 69.704 123.156 69.704 204.861v136.54c0 52.5-19.927 100.26-52.429 136.499h18.299c92.498 0 170.66-109.466 170.66-238.971s-78.162-238.93-170.66-238.93z" />
<glyph unicode="&#xe904;" glyph-name="Ferris-wheel, attraction" d="M837.673 550.4c-33.341 106.138-117.146 189.911-223.273 223.263v83.937h-204.8v-83.948c-106.127-33.341-189.932-117.115-223.273-223.252h-83.927v-102.4c0-50.002 35.932-91.525 83.333-100.475 14.868-48.261 40.366-91.699 73.4-128.225l-105.533-180.9c24.269 0 52.767 0 79.032 0l78.295 134.226c30.198-22.098 64-39.629 100.598-50.903 8.95-47.391 50.473-83.323 100.475-83.323s91.525 35.932 100.475 83.333c36.628 11.274 70.4 28.774 100.598 50.872l78.295-134.205c26.255 0 54.764 0 79.032 0l-105.533 180.9c33.034 36.495 58.532 79.974 73.4 128.225 47.401 8.95 83.333 50.473 83.333 100.475v102.4h-83.927zM477.87 789.33h68.26v-34.13c0-18.811-15.299-34.13-34.13-34.13s-34.13 15.319-34.13 34.13v34.13zM238.93 448c0-18.821-15.299-34.14-34.13-34.14s-34.13 15.319-34.13 34.14v34.13h68.26v-34.13zM546.13 140.8c0-18.801-15.299-34.13-34.13-34.13s-34.13 15.329-34.13 34.13v34.13h68.26v-34.13zM614.4 194.97v48.23h-204.8v-48.23c-23.132 9.359-44.595 21.903-64.072 36.925l106.138 181.965h120.658l106.168-181.965c-19.497-15.022-40.96-27.566-64.092-36.925zM728.371 281.866l-116.838 200.264h-199.066l-116.838-200.264c-17.705 23.030-31.795 48.927-41.503 76.933 31.508 17.469 53.074 50.657 53.074 89.201v102.4h-48.23c29.46 72.714 89.303 129.669 163.83 155.464 17.469-31.498 50.668-53.064 89.201-53.064s71.731 21.565 89.201 53.064c74.527-25.774 134.369-82.749 163.83-155.464h-48.23v-102.4c0-38.543 21.565-71.731 53.074-89.201-9.708-27.996-23.808-53.903-41.503-76.933zM853.33 448c0-18.821-15.299-34.14-34.13-34.14s-34.13 15.319-34.13 34.14v34.13h68.26v-34.13z" />
<glyph unicode="&#xe905;" glyph-name="Bbq, grill" d="M729.569 241.9l-41.697 152.904c99.031 59.73 165.458 168.038 165.458 292.137h-682.66c0-124.099 66.427-232.407 165.458-292.137l-97.198-356.403h70.769l18.627 68.27h292.342c14.131-39.67 51.63-68.27 96.133-68.27 56.535 0 102.4 45.865 102.4 102.4 0 52.173-39.199 94.771-89.631 101.1zM247.572 618.67h528.855c-30.403-117.668-137.431-204.8-264.428-204.8s-234.025 87.132-264.428 204.8zM620.667 174.93h-273.736l51.896 190.3c35.471-12.503 73.441-19.63 113.172-19.63s77.701 7.127 113.172 19.599l37.56-137.769c-19.436-12.165-34.263-30.556-42.066-52.5zM716.8 106.67c-18.831 0-34.13 15.299-34.13 34.13s15.299 34.13 34.13 34.13 34.13-15.299 34.13-34.13-15.299-34.13-34.13-34.13zM413.297 755.2h-71.967l34.14 102.4h71.956zM549.827 755.2h-71.956l34.13 102.4h71.997zM686.397 755.2h-71.997l34.13 102.4h71.997zM714.301 38.4h2.499c-0.87 0-1.7 0.225-2.57 0.266l0.072-0.266z" />
<glyph unicode="&#xe906;" glyph-name="Horseshoe, luck" d="M512 857.6c-207.329 0-375.47-168.131-375.47-375.47 0-155.628 47.442-311.030 140.872-443.73l167.465 117.903c-67.738 96.205-103.537 208.865-103.537 325.827 0 94.095 76.575 170.67 170.67 170.67s170.67-76.595 170.67-170.772c0.061-117.156-35.604-229.796-103.137-325.734l167.465-117.893c88.402 125.604 140.534 278.569 140.472 443.73 0 207.34-168.141 375.47-375.47 375.47zM818.596 462.725l-67.901 11.971c0.031 2.468 0.225 4.905 0.225 7.373 0 46.131-13.363 89.129-36.096 125.696l52.838 44.329c32.512-48.722 51.538-107.162 51.538-170.025 0-6.472-0.43-12.902-0.604-19.343zM256.328 652.104l52.797-44.329c-22.702-36.567-36.055-79.503-36.055-125.645 0-2.458 0.205-4.925 0.225-7.404l-67.871-12.001c-0.154 6.472-0.625 12.902-0.625 19.405 0 62.843 19.026 121.272 51.528 169.974zM353.065 175.165l-56.166-39.537c-45.67 80.169-74.967 167.67-86.497 258.673l67.4 11.868c9.871-81.101 35.328-159.242 75.264-231.004zM353.065 660.029l-52.675 44.237c47.37 45.169 109.005 75.438 177.469 83.067v-68.997c-47.565-6.84-90.563-27.668-124.795-58.307zM546.13 718.336v68.997c68.475-7.639 130.099-37.898 177.469-83.067l-52.695-44.237c-34.232 30.638-77.199 51.466-124.774 58.307zM727.47 135.67l-56.166 39.526c39.803 71.67 65.198 149.729 74.967 230.932l67.359-11.858c-11.428-91.075-40.602-178.545-86.159-258.601z" />
<glyph unicode="&#xe907;" glyph-name="Bones" d="M802.13 397.998h-45.865c-32.973 0-62.833 13.404-84.47 35l-15.002 14.971 15.043 15.032c21.627 21.627 51.487 35 84.49 35h45.844c30.556-0.031 61.133 11.633 84.46 34.959 46.633 46.643 46.633 122.296 0 168.97-16.63 16.63-38.502 24.965-60.334 24.996l-35.369-0.031v35.369c0 21.862-8.325 43.663-24.996 60.365-46.633 46.633-122.286 46.633-168.929 0-23.327-23.327-34.99-53.934-34.99-84.49v-45.865c0-32.963-13.404-62.833-35-84.46l-15.012-15.012-15.002 15.032c-21.637 21.627-35 51.497-35 84.5v45.834c0.031 30.566-11.643 61.133-34.97 84.47-46.633 46.633-122.296 46.633-168.96 0-16.64-16.63-24.965-38.502-24.996-60.334l0.031-35.369h-35.359c-21.873 0-43.674-8.335-60.375-24.996-46.633-46.633-46.633-122.296 0-168.929 23.327-23.327 53.934-35 84.5-35h45.865c32.973 0 62.843-13.404 84.47-35l14.971-14.971-15.002-15.002c-21.637-21.627-51.497-35.031-84.5-35.031h-45.834c-30.566 0.031-61.143-11.633-84.47-34.959-46.633-46.643-46.633-122.296 0-168.97 16.63-16.63 38.502-24.965 60.334-24.996l35.369 0.041v-35.369c0-21.873 8.325-43.674 24.996-60.375 46.633-46.633 122.286-46.633 168.929 0 23.327 23.337 35 53.944 35 84.5v45.865c0 32.963 13.404 62.833 35 84.46l14.961 14.971 15.002-15.002c21.637-21.627 35.041-51.497 35.041-84.5v-45.834c-0.041-30.566 11.633-61.133 34.959-84.47 46.633-46.633 122.296-46.633 168.96 0 16.64 16.64 24.965 38.502 24.996 60.344l-0.031 35.359h35.369c21.862 0 43.663 8.335 60.365 24.996 46.633 46.633 46.633 122.296 0 168.929-23.316 23.337-53.924 35-84.49 35zM400.435 511.304c-35.502 35.461-82.627 54.958-132.7 54.958h-45.865c-13.701 0-26.532 5.304-36.198 14.971-19.968 19.999-19.968 52.47 0 72.428 4.127 4.137 8.796 4.997 12.073 4.997h69.53c18.831 0 34.099 15.268 34.099 34.13v69.427c0 3.267 0.86 7.997 4.956 12.134 19.968 19.968 52.47 19.968 72.428 0 9.636-9.667 14.971-22.538 14.971-36.229v-45.804c0-50.135 19.528-97.3 54.999-132.803l14.971-15.002-48.271-48.261-14.991 15.053zM448.707 336.435c-35.471-35.502-54.968-82.637-54.968-132.7v-45.865c0-13.701-5.304-26.532-14.971-36.198-19.988-19.958-52.46-19.958-72.428 0-4.127 4.137-4.997 8.796-4.997 12.073v69.53c0 18.831-15.258 34.099-34.13 34.099h-69.427c-3.267 0-7.997 0.87-12.134 4.966-19.968 19.958-19.968 52.46 0 72.428 9.656 9.626 22.528 14.971 36.229 14.971h45.804c50.135 0 97.3 19.528 132.792 54.989l174.838 174.828c35.471 35.502 54.968 82.637 54.968 132.7v45.865c0 13.691 5.304 26.532 14.971 36.198 19.999 19.968 52.46 19.968 72.428 0 4.127-4.127 4.997-8.796 4.997-12.063v-69.53c0-18.831 15.258-34.099 34.13-34.099h69.427c3.267 0 7.997-0.87 12.145-4.966 19.958-19.958 19.958-52.46 0-72.428-9.667-9.626-22.538-14.971-36.239-14.971h-45.814c-50.135 0-97.29-19.528-132.792-54.989l-174.828-174.838zM838.328 242.34c-4.127-4.137-8.796-4.997-12.063-4.997h-69.54c-18.831 0-34.099-15.268-34.099-34.14v-69.427c0-3.256-0.86-7.997-4.956-12.134-19.968-19.968-52.47-19.968-72.428 0-9.636 9.667-14.971 22.528-14.971 36.229v45.804c0 50.135-19.528 97.3-54.999 132.803l-15.002 15.002 48.271 48.261 15.032-15.032c35.502-35.461 82.627-54.958 132.7-54.958h45.865c13.701 0 26.542-5.304 36.198-14.971 19.958-20.009 19.958-52.48-0.010-72.438z" />
<glyph unicode="&#xe908;" glyph-name="Bat" d="M819.272 721.060h-0.072c-50.934-50.934-111.432-86.231-175.667-106.598l-29.133 174.868-102.4-68.27-102.4 68.27-29.133-174.868c-64.236 20.367-124.733 55.665-175.667 106.598-63.273-61.133-102.4-145.603-102.4-238.899v-97.956c76.667 31.734 164.526-4.598 196.27-81.275 108.401 0 196.26-87.828 196.26-196.26h34.14c0 108.431 87.828 196.26 196.26 196.26 31.775 76.667 119.603 112.998 196.27 81.275v97.925c0.031 86.467-34.099 172.974-102.328 238.93zM853.33 463.657c-69.499-3.359-132.157-39.26-170.26-95.826-69.939-11.305-130.796-50.104-171.069-104.899-40.274 54.804-101.13 93.604-171.069 104.899-38.062 56.566-100.731 92.467-170.26 95.826v18.504c0 50.975 14.664 99.799 42.127 142.070 44.196-32.768 93.399-57.825 147.026-74.834l75.039-23.798 24.73 148.357 52.408-34.929 52.398 34.929 24.73-148.357 75.039 23.798c53.627 16.998 102.861 42.056 147.057 74.834 27.443-42.271 42.138-91.095 42.097-142.070v-18.504z" />
<glyph unicode="&#xe909;" glyph-name="Cotton-candy" d="M861.696 797.716c-66.898 66.949-168.53 77.66-246.825 32.553-47.432 15.657-101.652 5.202-139.387-32.543-27.003-26.982-40.202-62.515-39.834-97.935-53.77 10.383-111.565-5.243-153.201-46.858-66.632-66.642-66.662-174.725-0.031-241.357-45.005-44.974-51.528-113.234-20.726-165.56l-159.293-159.334 48.23-48.261 159.365 159.365c52.285-30.771 120.556-24.197 165.489 20.726 53.33-53.299 139.858-53.299 193.085 0 27.034 27.034 40.233 62.556 39.895 97.987 53.729-10.394 111.596 5.14 153.16 46.868 51.63 51.599 62.771 127.898 34.427 190.679 43.080 77.824 31.683 177.695-34.355 243.671zM813.404 411.597c-39.967-39.956-104.827-39.956-144.763 0l-48.333-48.261c26.665-26.665 26.665-69.898 0-96.573-26.665-26.665-69.868-26.634-96.573 0l-48.251 48.271-48.261-48.271c-26.644-26.665-69.868-26.665-96.532 0s-26.665 69.868 0 96.573l48.261 48.23-48.261 48.302c-39.997 39.956-39.997 104.806 0 144.804 39.987 39.987 104.786 39.936 144.794-0.041l48.292 48.312c-26.696 26.655-26.624 69.868 0 96.553 26.696 26.634 69.898 26.665 96.532 0 53.391 53.33 139.827 53.299 193.116-0.020 53.33-53.32 53.299-139.725 0-193.085 39.936-39.956 39.977-104.786-0.020-144.794zM427.223 508.129c-13.343-13.332-34.939-13.332-48.271 0-13.332 13.343-13.332 34.929 0 48.261 13.332 13.363 34.929 13.343 48.271 0 13.332-13.332 13.363-34.918 0-48.261zM775.137 484.004c0-18.861-15.29-34.15-34.15-34.15s-34.15 15.29-34.15 34.15c0 18.861 15.29 34.15 34.15 34.15s34.15-15.29 34.15-34.15zM716.841 652.943c-13.302-13.353-34.898-13.353-48.271 0-13.332 13.332-13.332 34.929 0.041 48.271 13.332 13.343 34.888 13.343 48.23-0.020 13.363-13.322 13.363-34.929 0-48.251zM596.183 435.732c-13.343-13.332-34.939-13.332-48.271 0-13.373 13.343-13.373 34.939 0.031 48.271 13.343 13.332 34.898 13.332 48.241 0 13.353-13.332 13.353-34.918 0-48.271z" />
<glyph unicode="&#xe90a;" glyph-name="Sledge" d="M921.6 277.33v477.87h-68.27c-37.704 0-71.834-15.268-96.532-39.997l-158.925-158.935c-24.699-24.74-58.839-39.997-96.543-39.997h-40.53l-51.2 102.4h-136.53l68.26-341.34h68.27v-68.26h-170.67c-37.704 0-68.26 30.556-68.26 68.26s30.556 68.27 68.26 68.27v68.27c-75.397 0-136.53-61.143-136.53-136.54s61.133-136.53 136.53-136.53h682.67v68.27h-136.53v68.26h136.53zM716.8 209.070h-238.93v68.26h238.93v-68.26zM397.302 345.6l-40.97 204.8h11.069l51.2-102.4h82.729c54.743 0 106.168 21.33 144.845 60.027l158.894 158.904c12.902 12.902 30.034 19.999 48.261 19.999v-341.33h-456.028z" />
<glyph unicode="&#xe90b;" glyph-name="Coffin" d="M716.8 857.6h-409.6l-68.26-273.060 136.53-546.14h273.060l136.53 546.13-68.26 273.070zM595.231 106.68h-166.461l-119.47 477.85 51.2 204.79h303.002l51.2-204.79-119.47-477.85zM614.4 618.67h-68.27v68.26h-68.26v-68.26h-68.27v-68.27h68.27v-136.54h68.26v136.54h68.27z" />
<glyph unicode="&#xe90c;" glyph-name="Easter-egg, pattern, b" d="M511.969 857.6c-169.636 0-307.169-229.233-307.169-512h0.072c0-169.667 137.533-307.2 307.159-307.2 169.636 0 307.169 137.533 307.169 307.2-0.072 282.767-137.595 512-307.231 512zM747.131 421.274l-81.531-81.541-153.6 153.6-153.6-153.6-81.428 81.439c2.765 28.764 7.096 56.699 12.902 83.661l68.526-68.567 153.6 153.631 153.6-153.631 68.874 68.905c5.652-26.501 9.923-54.497 12.657-83.896zM511.969 789.33c76.462 0 156.262-78.572 201.564-208.538l-47.933-47.964-153.6 153.641-153.6-153.641-47.401 47.432c11.674 33.27 25.6 64.471 42.301 92.273 26.204 43.602 81.603 116.797 158.669 116.797zM512.031 106.67c-125.655 0-228.762 97.597-238.029 220.928l84.398-84.398 153.6 153.6 153.6-153.6 84.429 84.429c-9.257-123.361-112.364-220.959-237.998-220.959z" />
<glyph unicode="&#xe90d;" glyph-name="Ferris-wheel1, attraction2, b1" d="M887.47 448v68.27h-70.267c-6.574 59.228-29.972 113.295-65.3 157.46l49.725 49.766-48.261 48.271-49.736-49.766c-44.196 35.328-98.263 58.767-157.501 65.331v70.267h-68.26v-70.267c-59.238-6.564-113.295-30.003-157.471-65.331l-49.766 49.766-48.261-48.271 49.756-49.766c-35.328-44.165-58.757-98.232-65.331-157.46h-70.267v-68.27h70.267c6.574-59.228 30.003-113.295 65.331-157.501l-49.756-49.725 48.261-48.271 49.766 49.725c15.534-12.431 32.471-23.204 50.268-32.502l-39.67-103.055h-160.328v-68.27h682.66v68.27h-160.328l-39.67 103.055c17.838 9.298 34.744 20.070 50.299 32.502l49.736-49.725 48.261 48.271-49.725 49.725c35.328 44.196 58.726 98.273 65.3 157.501h70.267zM404.173 106.67l30.095 78.264c24.832-6.502 50.862-10.004 77.732-10.004s52.9 3.502 77.701 10.004l30.095-78.264h-215.624zM509.297 379.996c0.901-0.031 1.772-0.266 2.703-0.266s1.802 0.236 2.703 0.266l50.268-130.703c-17.070-3.86-34.744-6.093-52.972-6.093s-35.932 2.232-52.972 6.103l50.268 130.693zM477.87 482.13c0 18.872 15.258 34.14 34.13 34.14s34.13-15.268 34.13-34.14c0-18.862-15.258-34.13-34.13-34.13s-34.13 15.268-34.13 34.13zM628.726 273.766l-50.36 130.959c21.862 18.77 36.035 46.275 36.035 77.404 0 56.566-45.834 102.4-102.4 102.4s-102.4-45.834-102.4-102.4c0-31.13 14.172-58.634 36.065-77.404l-50.401-130.959c-72.868 40.899-122.204 118.825-122.204 208.364 0 131.942 106.998 238.94 238.93 238.94 131.973 0 238.93-106.998 238.93-238.94 0.010-89.528-49.316-167.465-122.194-208.364z" />
<glyph unicode="&#xe90e;" glyph-name="Christmas-tree" d="M512 721.070l-307.2-614.4h273.070v-68.27h68.26v68.27h273.070l-307.2 614.4zM315.269 174.93l196.731 393.472 196.731-393.472h-393.462zM580.27 809.8l-47.145 6.605-21.125 41.196-21.105-41.196-47.165-6.605 34.14-32.061-8.038-45.302 42.168 21.402 42.23-21.402-8.1 45.302 34.14 32.061zM477.86 243.2c0-18.849-15.28-34.13-34.13-34.13s-34.13 15.28-34.13 34.13c0 18.849 15.28 34.13 34.13 34.13s34.13-15.28 34.13-34.13zM614.4 243.2c0-18.849-15.28-34.13-34.13-34.13s-34.13 15.28-34.13 34.13c0 18.849 15.28 34.13 34.13 34.13s34.13-15.28 34.13-34.13zM546.13 379.73c0-18.849-15.28-34.13-34.13-34.13s-34.13 15.28-34.13 34.13c0 18.849 15.28 34.13 34.13 34.13s34.13-15.28 34.13-34.13z" />
<glyph unicode="&#xe90f;" glyph-name="Beard" d="M921.6 761.068l-48.271 48.271c-86.364-86.333-226.857-86.2-313.057 0l-48.271 48.261-48.271-48.261c-86.333-86.333-226.765-86.272-313.057 0l-48.271-48.271c16.097-16.097 33.772-29.665 52.296-41.165-32.43-36.239-52.296-83.968-52.296-136.376 0-52.429 19.999-104.858 59.965-144.835l255.498-255.498c37.059-37.069 59.996-88.269 59.996-144.804h68.26c0 56.535 22.938 107.735 59.996 144.804l255.468 255.498c40.018 39.977 60.017 92.406 60.017 144.835 0 52.408-19.896 100.137-52.326 136.366 18.555 11.51 36.229 25.068 52.326 41.175zM813.332 680.069c25.805-25.805 39.997-60.068 39.997-96.532 0-36.495-14.203-70.799-39.997-96.563l-255.468-255.508c-18.268-18.268-33.638-38.666-45.865-60.641-12.227 21.975-27.566 42.373-45.865 60.641l-255.508 255.508c-25.764 25.764-39.956 60.099-39.956 96.563 0 36.475 14.203 70.738 39.997 96.532l9.626 9.667c99.604-31.273 212.736-7.598 291.707 71.332 78.93-78.93 192.072-102.605 291.697-71.332l9.636-9.667zM375.47 577.669c91.003-37.745 188.733-34.939 273.060 0l-26.132 63.068c-71.199-29.501-149.627-29.501-220.774 0l-26.153-63.068z" />
<glyph unicode="&#xe910;" glyph-name="Cross, religion" d="M756.070 638.198c-26.399 52.797-69.335 95.734-122.143 122.132l14.602 97.27h-273.060l14.602-97.27c-52.797-26.399-95.744-69.335-122.143-122.132l-97.26 14.602v-273.070l97.26 14.602c28.068-56.105 74.742-101.1 132.065-126.935l-24.525-228.997h273.060l-24.535 228.997c57.334 25.866 103.997 70.83 132.065 126.935l97.26-14.602v273.070l-97.249-14.602zM623.135 688.169c24.3-15.77 45.005-36.475 60.774-60.774l-71.496-10.732 10.721 71.506zM400.865 688.169l10.732-71.496-71.496 10.732c15.77 24.3 36.465 44.995 60.764 60.764zM407.798 340.173c-27.269 16.159-50.473 38.4-67.697 64.963l75.899 11.397-8.202-76.36zM616.202 340.173l-8.172 76.36 75.868-11.356c-17.203-26.604-40.397-48.804-67.697-65.004zM785.070 458.998l-254.341 38.175 41.841-390.502h-121.139l41.841 390.502-254.341-38.175v114.534l253.87-38.062-38.072 253.86h114.545l-38.072-253.86 253.87 38.062v-114.534z" />
<glyph unicode="&#xe911;" glyph-name="Christmas-tree-toy1, ball1" d="M409.6 570.982c0-3.4 1.7-6.451 4.301-8.325v0.072l50.831-36.936c0 0-19.425-59.802-19.405-59.802-1.362-4.198-0.031-8.796 3.738-11.53 3.656-2.673 8.53-2.468 12.032 0.061l50.903 36.946 50.903-36.936c3.502-2.529 8.366-2.734 12.104-0.061 3.697 2.734 5.069 7.332 3.697 11.53l-19.425 59.802 50.862 36.997v-0.133c2.591 1.864 4.26 4.915 4.26 8.315 0 5.704-4.628 10.332-10.301 10.332l-62.904 0.031-19.466 59.802c-1.26 4.096-5.161 7.137-9.728 7.137-4.526 0-8.428-3.031-9.728-7.137l-19.466-59.802-62.904-0.031c-5.632 0-10.301-4.628-10.301-10.332zM815.032 702.781l106.568 106.557-48.271 48.261-106.557-106.547-72.397 72.417-39.301-78.602c-52.797 28.324-113.101 44.472-177.203 44.472-207.37-0.010-375.47-168.11-375.47-375.47 0-207.34 168.1-375.47 375.47-375.47 207.329 0 375.46 168.131 375.46 375.47 0 64.102-16.128 124.396-44.462 177.193l78.602 39.301-72.438 72.417zM704.666 207.196l-20.101 20.101 38.001 74.732c2.703 5.038 1.905 11.602-2.437 15.903-4.26 4.301-10.834 5.1-15.933 2.468l-74.701-38.031-59.3 59.3-0.031-0.041c-5.335 5.304-14.070 5.335-19.466-0.031-3.205-3.205-4.475-7.67-3.727-11.868l0.031 0.041 13.097-82.77c0 0-74.732-38.031-74.701-38.072-5.233-2.662-8.325-8.264-7.373-14.397 0.973-5.96 5.745-10.363 11.438-11.305l82.801-13.158 7.26-45.804c-31.857-11.203-65.956-17.603-101.663-17.603-108.667 0-203.971 56.596-258.57 141.763l23.429 45.937 82.801-13.036-0.061-0.102c4.198-0.696 8.602 0.573 11.796 3.799 5.396 5.366 5.396 14.070 0.061 19.436l-59.259 59.331 38.001 74.732c2.662 5.069 1.864 11.602-2.468 15.944-4.27 4.26-10.803 5.059-15.933 2.458l-74.67-38.062-47.534 47.534c24.965 144.589 150.661 254.669 302.397 254.669 169.626 0 307.2-137.533 307.2-307.2 0.020-79.688-30.618-152.064-80.384-206.664z" />
<glyph unicode="&#xe912;" glyph-name="Guitar, neck" d="M785.070 618.701v68.27h-47.043l12.902 119.47c-147.558 65.628-318.597 70.728-477.86 0l12.933-119.47h-47.073v-68.27h54.436l7.363-68.27h-61.798v-68.27h69.202l7.373-68.26h-76.575v-68.229h83.937l18.463-170.67h68.27v-136.602h68.27v204.882h-75.274l-11.069 102.4h52.204v68.229h-59.556l-7.373 68.26h66.929v68.27h-74.332l-7.373 68.27h81.705v68.27h-89.057l-8.141 74.967c53.668 18.196 109.066 27.402 165.304 27.402 56.504 0 112.005-9.196 165.642-27.372l-8.1-74.998h-89.098v-68.27h81.705l-7.373-68.27h-74.332v-68.27h66.929l-7.373-68.26h-59.556v-68.229h52.163l-11.059-102.4h-75.244v-204.872h68.26v136.602h68.27l18.463 170.67h83.937v68.229h-76.575l7.373 68.26h69.202v68.27h-61.798l7.363 68.27h54.436z" />
<glyph unicode="&#xe913;" glyph-name="Christmas-tree-toy, ball-2" d="M614.4 705.362v83.968c0 37.704-30.566 68.27-68.27 68.27h-68.26c-37.704 0-68.27-30.566-68.27-68.27v-83.937c-138.465-43.53-238.93-172.861-238.93-325.673 0-188.488 152.801-341.32 341.33-341.32 188.498 0 341.33 152.832 341.33 341.33 0 152.801-100.465 282.132-238.93 325.632zM477.87 789.299l68.301 0.031-0.041-70.001c-11.203 1.126-22.6 1.731-34.13 1.731s-22.897-0.604-34.13-1.731v69.97zM512 106.67c-150.804 0-273.070 122.255-273.070 273.060s122.266 273.070 273.070 273.070 273.070-122.266 273.070-273.070c0-150.804-122.266-273.060-273.070-273.060zM512 243.2c75.397 0 136.53 61.133 136.53 136.53h68.27c0-113.101-91.699-204.8-204.8-204.8v68.27z" />
<glyph unicode="&#xe914;" glyph-name="Leprechaun" d="M716.8 516.27l34.13 341.33h-477.86l34.13-341.33h-68.27v-68.27h68.27v-79.729c0-119.368 45.466-238.838 136.53-329.871h136.54c91.064 91.034 136.53 210.504 136.53 329.871v79.729h68.27v68.27h-68.27zM673.833 789.33l-11.93-119.47h-81.633c0 18.77-15.37 34.13-34.14 34.13h-68.26c-18.77 0-34.14-15.36-34.14-34.13h-82.002l-11.93 119.47h324.035zM368.599 601.6h75.131c0-18.77 15.37-34.13 34.14-34.13h68.26c18.77 0 34.14 15.37 34.14 34.13h74.803l-8.54-85.33h-269.404l-8.53 85.33zM648.53 311.47c0-75.397-61.133-136.54-136.53-136.54s-136.53 61.143-136.53 136.54v136.53h273.060v-136.53zM477.86 379.73c0-18.849-15.28-34.13-34.13-34.13s-34.13 15.28-34.13 34.13c0 18.849 15.28 34.13 34.13 34.13s34.13-15.28 34.13-34.13zM614.4 379.73c0-18.849-15.28-34.13-34.13-34.13s-34.13 15.28-34.13 34.13c0 18.849 15.28 34.13 34.13 34.13s34.13-15.28 34.13-34.13z" />
<glyph unicode="&#xe915;" glyph-name="Carousel, attraction1" d="M546.13 686.93v68.27h102.4l-34.13 102.4h-136.53v-170.67c-87.398-87.378-208.067-170.66-341.34-170.66v0-204.8h68.27v-136.54h68.27v136.54h68.26v-136.54h68.27v136.54h68.27v-204.8h-341.34v-68.27h750.94v68.27h-341.34v204.8h68.27v-136.54h68.27v136.54h68.26v-136.54h68.27v136.54h68.27v204.8c-133.274 0-253.942 83.282-341.34 170.66zM512 624.886c39.066-37.396 87.071-76.616 142.070-108.616h-284.099c54.999 32 102.994 71.219 142.029 108.616zM819.2 379.73h-614.4v68.27h614.4v-68.27z" />
<glyph unicode="&#xe916;" glyph-name="Cemetery, tombstone, cross" d="M819.2 106.67v204.8h68.27v68.26h-68.27v68.27h-68.27v-68.27h-68.26v-68.26h68.26v-204.8h-136.53v409.6h136.53v204.8h-136.53v136.53h-204.8v-136.53h-136.53v-204.8h136.53v-409.6h-136.53v204.8h68.26v68.26h-68.26v68.27h-68.27v-68.27h-68.27v-68.26h68.27v-204.8h-102.4v-68.27h819.2v68.27h-102.4zM477.87 106.67v477.86h-136.54v68.27h136.54v136.53h68.26v-136.53h136.54v-68.27h-136.54v-477.87h-68.26z" />
<glyph unicode="&#xe917;" glyph-name="Fence" d="M921.6 550.4v68.27h-51.2v68.26l-102.4 102.4-102.4-102.4v-68.26h-51.2v68.26l-102.4 102.4-102.4-102.4v-68.26h-51.2v68.26l-102.4 102.4-102.4-102.4v-68.26h-51.2v-68.27h51.2v-273.070h-51.2v-68.26h51.2v-102.4h204.8v102.4h51.2v-102.4h204.8v102.4h51.2v-102.4h204.8v102.4h51.2v68.26h-51.2v273.070h51.2zM290.13 174.93h-68.26v483.738l34.13 34.13 34.13-34.13v-483.738zM409.6 277.33h-51.2v273.070h51.2v-273.070zM546.13 174.93h-68.26v483.738l34.13 34.13 34.13-34.13v-483.738zM665.6 277.33h-51.2v273.070h51.2v-273.070zM802.13 174.93h-68.26v483.738l34.13 34.13 34.13-34.13v-483.738z" />
<glyph unicode="&#xe918;" glyph-name="Bell" d="M716.8 387.942v128.328c0 52.521-19.968 100.27-52.5 136.53h18.371c56.535 0 102.4 45.855 102.4 102.4s-45.865 102.4-102.4 102.4c-28.273 0-53.873-11.469-72.397-30.003l-98.273-103.148-98.273 103.148c-18.534 18.534-44.134 30.003-72.397 30.003-56.535 0-102.4-45.855-102.4-102.4s45.865-102.4 102.4-102.4h18.34c-32.502-36.27-52.47-84.019-52.47-136.53v-128.328c0-96.471-39.127-183.869-102.4-247.142h204.8c0-56.535 45.865-102.4 102.4-102.4s102.4 45.865 102.4 102.4h204.8c-63.273 63.273-102.4 150.671-102.4 247.142zM659.702 780.513c2.57 2.55 10.67 8.817 22.968 8.817 18.831 0 34.13-15.319 34.13-34.13s-15.299-34.13-34.13-34.13h-79.596l56.627 59.443zM341.33 721.070c-18.831 0-34.13 15.319-34.13 34.13s15.299 34.13 34.13 34.13c12.298 0 20.398-6.267 22.968-8.817l56.627-59.453h-79.596zM512 106.67c-18.872 0-34.13 15.299-34.13 34.13h68.26c0-18.831-15.258-34.13-34.13-34.13zM334.899 209.070c26.266 55.255 40.571 115.886 40.571 178.872v128.328c0 75.377 61.133 136.53 136.53 136.53 75.366 0 136.53-61.153 136.53-136.53v-128.328c0-62.976 14.295-123.607 40.571-178.872h-354.202z" />
<glyph unicode="&#xe919;" glyph-name="Cookie, gingerbread" d="M605.86 669.839c0-18.831-15.268-34.099-34.14-34.099-18.862-0.031-34.13 15.268-34.058 34.099-0.072 18.872 15.196 34.13 34.058 34.13 18.872 0 34.14-15.299 34.14-34.13zM486.39 669.87c0.031-18.831-15.268-34.161-34.068-34.161-18.934 0-34.13 15.299-34.161 34.13-0.041 18.872 15.258 34.13 34.161 34.171 18.801-0.041 34.099-15.34 34.068-34.14zM819.261 584.509l-114.34 0.020c7.537 21.402 11.94 44.268 11.868 68.27 0 113.070-91.668 204.728-204.8 204.831-112.128-0.031-203.069-90.225-204.575-202.025-11.203 8.796-21.996 17.93-31.959 27.996-39.567 39.967-103.741 39.967-143.401 0-39.537-39.936-39.537-104.868 0.061-144.804 67.4-68.137 149.74-115.405 239.473-139.878l-90.696-218.931c-21.596-52.265 3.174-112.169 55.398-133.796 52.234-21.637 112.23 3.164 133.796 55.357l41.902 101.243 41.933-101.243c21.596-52.163 81.541-77.005 133.868-55.398 52.204 21.668 77.005 81.541 55.327 133.796l-82.729 199.772 158.802-0.031c56.535 0.061 102.472 45.896 102.4 102.4 0 56.545-45.865 102.441-102.328 102.42zM180.562 635.607c8.499 8.458 18.156 9.656 23.235 9.759 5.069-0.061 14.766-1.362 23.204-9.759 8.366-8.499 17.132-16.435 26.132-24.074l-47.196-47.165c-8.458 7.404-17.326 14.367-25.303 22.405-13.373 13.496-13.373 35.359-0.072 48.835zM375.419 106.66c-4.403 0-8.796 0.87-12.964 2.57-17.439 7.229-25.672 27.228-18.473 44.595l13.066 31.529 62.996-26.102-13.066-31.498c-5.263-12.851-17.684-21.125-31.56-21.094zM680.059 127.734c-2.068-4.874-7.137-13.773-18.473-18.504-4.198-1.731-8.602-2.601-13.005-2.57-13.926-0.031-26.266 8.305-31.601 21.105l-13.005 31.468 62.996 26.102 13.066-31.498c4.68-11.336 2.017-21.238 0.020-26.102zM640.86 248.402l-62.996-26.102-65.802 158.761-65.802-158.73-63.068 26.132 81.132 195.973-74.803 20.398c-45.763 12.472-88.801 32.604-128.532 58.030l48.671 48.701c41.4-24.228 86.6-40.96 134.134-49.101v12.769c-40.632 23.675-68.27 67.205-68.301 117.565 0.031 75.305 61.266 136.499 136.499 136.499 75.325 0.061 136.53-61.235 136.602-136.54 0-50.299-27.668-93.829-68.332-117.535v-18.903l136.53-0.031 0.072-68.291-158.669-0.041 82.668-199.557zM819.261 448h-34.202v68.301h34.13c18.801-0.041 34.202-15.401 34.202-34.171-0.072-18.821-15.401-34.161-34.13-34.13z" />
<glyph unicode="&#xe91a;" glyph-name="Clover, luck1" d="M817.531 224.87l-10.967 10.957c31.304 10.639 58.143 33.802 71.772 66.775 25.272 60.928-3.697 130.826-64.635 156.099-21.565 8.929-43.336 16.63-65.239 23.429 21.903 6.799 43.674 14.5 65.239 23.439 60.928 25.262 89.897 95.16 64.635 156.099-19.425 46.961-65.434 74.598-113.367 73.431 1.167 47.964-26.46 93.932-73.431 113.367-60.928 25.272-130.826-3.697-156.099-64.635-8.929-21.565-16.63-43.336-23.429-65.239-6.799 21.903-14.5 43.663-23.439 65.239-25.262 60.928-95.16 89.897-156.099 64.635-46.961-19.425-74.598-65.403-73.431-113.367-47.974 1.167-93.932-26.46-113.367-73.431-25.262-60.938 3.697-130.836 64.645-156.099 21.555-8.94 43.356-16.64 65.229-23.439-21.873-6.799-43.674-14.5-65.229-23.429-60.938-25.272-89.897-95.171-64.645-156.099 19.436-46.971 65.444-74.598 113.367-73.431-1.167-47.944 26.47-93.942 73.431-113.367 60.938-25.272 130.836 3.697 156.099 64.635 8.94 21.565 16.64 43.366 23.439 65.239 6.799-21.903 14.5-43.674 23.429-65.239 25.272-60.928 95.171-89.897 156.099-64.635 32.973 13.629 56.125 40.468 66.775 71.772l10.957-10.967c32.195-32.205 49.93-75.080 49.93-120.678v-17.531h68.26v17.531c0 63.836-24.832 123.843-69.929 168.94zM425.503 206.572c-10.803-26.071-40.796-38.502-66.867-27.699-19.067 7.895-31.365 26.46-31.365 47.401v69.929l-69.898 1.198c-21.463-0.532-40.53 11.766-48.63 31.334-2.611 6.267-3.942 12.861-3.942 19.538 0 20.797 12.431 39.404 31.662 47.36 76.974 31.898 157.972 49.336 241.039 51.999-2.632-83.057-20.101-164.065-51.999-241.060zM236.401 568.668c-26.071 10.803-38.472 40.796-27.668 66.857 7.875 19.067 26.47 31.345 47.401 31.345h69.929l1.198 69.929c-0.532 21.432 11.766 40.53 31.345 48.599 6.257 2.601 12.861 3.932 19.528 3.932 20.797 0 39.404-12.401 47.37-31.672 31.898-76.964 49.326-157.962 51.999-241.039-83.067 2.652-164.065 20.111-241.101 52.050zM598.497 757.74c10.803 26.061 40.796 38.461 66.857 27.668 19.067-7.864 31.365-26.46 31.365-47.401v-69.929l69.898-1.198c21.473 0.532 40.53-11.766 48.63-31.345 2.611-6.267 3.953-12.861 3.953-19.538 0-20.797-12.442-39.404-31.672-47.37-76.974-31.898-157.972-49.326-241.029-51.999 2.632 83.067 20.101 164.076 51.999 241.111zM767.898 297.4h-69.97l-1.198-69.929c0.532-21.443-11.766-40.499-31.304-48.599-6.298-2.601-12.872-3.942-19.528-3.942-20.838 0-39.444 12.442-47.401 31.672-31.898 76.974-49.336 157.972-51.999 241.029 83.057-2.632 164.055-20.101 241.101-52.029 26.061-10.803 38.502-40.796 27.658-66.867-7.854-19.067-26.46-31.334-47.36-31.334z" />
<glyph unicode="&#xe91b;" glyph-name="Souvenir, ball" d="M887.48 38.4l-85.903 204.8c53.637 64.932 85.883 148.173 85.883 238.93 0 207.401-168.1 375.47-375.47 375.47s-375.47-168.069-375.47-375.47c0-90.757 32.236-173.998 85.873-238.93l-85.873-204.8h750.961zM239.186 106.67l28.6 68.26h488.397l28.641-68.26h-545.638zM546.12 243.2h-68.27v102.4h68.27v-102.4zM204.79 482.13c0 169.4 137.8 307.2 307.2 307.2 169.39 0 307.2-137.81 307.2-307.2 0-96.461-44.8-182.559-114.596-238.93h-73.124v136.53h51.2l-170.68 170.67-170.67-170.67h51.2v-136.53h-73.134c-69.796 56.371-114.596 142.469-114.596 238.93zM750.92 482.13c0-18.862-15.258-34.13-34.14-34.13-18.862 0-34.12 15.268-34.12 34.13 0 18.872 15.258 34.14 34.12 34.14 18.883 0 34.14-15.268 34.14-34.14zM647.117 618.67c0-18.872-15.258-34.14-34.14-34.14-18.862 0-34.12 15.268-34.12 34.14 0 18.862 15.258 34.13 34.12 34.13 18.883 0 34.14-15.268 34.14-34.13zM477.85 686.93c0-18.849-15.28-34.13-34.13-34.13s-34.13 15.28-34.13 34.13c0 18.849 15.28 34.13 34.13 34.13s34.13-15.28 34.13-34.13zM375.45 550.4c0-18.849-15.28-34.13-34.13-34.13s-34.13 15.28-34.13 34.13c0 18.849 15.28 34.13 34.13 34.13s34.13-15.28 34.13-34.13z" />
<glyph unicode="&#xe91c;" glyph-name="Microphone, karaoke, songs" d="M580.27 857.6h-136.54c-75.1 0-136.53-61.44-136.53-136.53v-341.33c0-68.055 50.627-124.426 115.999-134.461 34.13-40.54 54.671-92.672 54.671-149.699v-57.18h68.26v57.17c0 57.027 20.541 109.158 54.641 149.699 65.403 10.035 116.029 66.406 116.029 134.461v341.34c0 75.090-61.43 136.53-136.53 136.53zM580.27 311.47h-136.54c-37.632 0-68.26 30.628-68.26 68.26h102.4v68.27h-102.4v68.27h102.4v68.27h-102.4v68.26h102.4v68.27h-102.4c0 37.652 30.628 68.27 68.26 68.27h136.54c37.632 0 68.26-30.618 68.26-68.27h-102.4v-68.27h102.4v-68.27h-102.4v-68.27h102.4v-68.26h-102.4v-68.27h102.4c0-37.632-30.628-68.26-68.26-68.26z" />
<glyph unicode="&#xe91d;" glyph-name="Air-balloon" d="M819.2 550.4c0 169.636-137.533 307.2-307.2 307.2s-307.2-137.564-307.2-307.2c0-115.569 142.326-247.726 233.196-320.328-17.091-12.472-28.396-32.502-28.396-55.142v-68.26c0-37.54 30.73-68.27 68.27-68.27h68.26c37.54 0 68.27 30.73 68.27 68.27v68.26c0 22.671-11.305 42.701-28.426 55.142 90.9 72.632 233.226 204.8 233.226 320.328zM273.070 550.4c0 84.296 44.032 158.403 110.162 200.94-26.030-53.975-41.902-124.17-41.902-201.103 0-55.736 25.999-128.266 62.003-199.762-71.66 68.751-130.263 144.865-130.263 199.926zM546.13 106.67h-68.26v68.26h68.26v-68.26zM511.867 296.325c-56.371 90.849-102.267 191.836-102.267 253.911 0 143.729 61.635 239.104 102.4 239.104s102.4-95.365 102.4-239.104c0-63.775-46.868-164.403-102.533-253.911zM621.128 351.13c35.041 69.243 61.542 141.435 61.542 199.107 0 76.933-15.872 147.128-41.902 201.103 66.13-42.537 110.162-116.644 110.162-200.94 0-57.467-60.826-133.366-129.802-199.27z" />
<glyph unicode="&#xe91e;" glyph-name="Easter, eggs" d="M784.271 643.277c-3.768 52.101-23.398 92.119-57.897 106.404-35.502 14.725-79.237-0.983-119.736-37.448-23.398 47.247-57.098 77.097-94.628 77.097-37.571 0-71.229-29.85-94.669-77.097-40.458 36.475-84.204 52.173-119.726 37.448-34.468-14.285-54.129-54.303-57.866-106.404-84.019-31.222-137.349-76.431-137.349-127.017 0-226.191 183.398-409.59 409.6-409.59s409.6 183.398 409.6 409.59c0 50.586-53.371 95.795-137.329 127.017zM754.801 483.912l0.031-0.010c12.298 29.696 20.767 59.351 25.539 87.562 48.056-20.797 72.96-43.162 72.96-55.204 0-15.77-42.527-49.367-124.6-73.83 10.445 12.063 19.538 25.743 26.071 41.482zM631.235 639.478c27.372 32.43 53.903 47.452 66.775 47.452 5.868-1.823 14.797-14.572 17.828-42.65 4.096-38.472-4.659-87.398-24.064-134.246-11.899-28.641-37.642-47.923-64-47.923-6.042 0-11.837 1.362-17.398 3.461 18.227 24.33 29.635 55.091 29.635 89.088-0.010 29.952-3.205 58.491-8.776 84.818zM481.434 687.913c13.496 24.801 26.644 33.147 30.566 33.147 14.868 0 59.699-59.013 59.73-166.41 0-39.987-26.798-72.52-59.73-72.52s-59.699 32.532-59.699 72.53c-0.031 50.719 10.598 99.287 29.133 133.253zM308.204 644.28c3 28.099 11.93 40.827 15.534 42.332h0.266c14.326 0 41.298-15.012 68.731-47.278-5.56-26.296-8.735-54.784-8.735-84.675h0.031c0-33.997 11.397-64.758 29.645-89.088-5.571-2.099-11.397-3.461-17.439-3.461-26.358 0-52.101 19.282-63.959 47.923-19.405 46.868-28.211 95.775-24.074 134.246zM243.63 571.464c4.772-28.211 13.24-57.856 25.539-87.562l0.031 0.010c6.533-15.739 15.596-29.42 26.071-41.462-82.074 24.443-124.6 58.040-124.6 73.81 0 12.042 24.904 34.396 72.96 55.204zM512 174.93c-152.433 0-281.467 99.973-325.274 237.896 74.844-40.796 192.502-67.226 325.274-67.226s250.429 26.429 325.274 67.226c-43.807-137.923-172.841-237.896-325.274-237.896z" />
<glyph unicode="&#xe91f;" glyph-name="Coloring, egg" d="M911.636 847.606c-13.332 13.332-35 13.332-48.261 0l-318.198-318.188c-30.597 14.561-66.621 13.128-96.092-4.403-75.93 77.732-165.202 112.927-237.527 83.057-114.831-47.432-143.677-240.466-64.399-431.196l0.072 0.031c47.596-114.473 179.231-168.796 294.062-121.375 114.79 47.37 169.37 178.565 121.795 293.028-0.799 1.905-1.7 3.666-2.499 5.571 4.567 3.226 9.032 6.625 13.128 10.732 31.498 31.468 37.796 78.244 19.743 116.275l318.188 318.198c13.261 13.343 13.261 34.939-0.010 48.271zM500.081 203.284c-15.974-38.605-46.1-68.639-84.828-84.644-19.272-7.956-39.465-12.001-60.037-12.001v0c-63.703 0.041-120.586 37.868-144.927 96.471l-3.533 8.468c-40.325 101.765-47.596 207.155-18.729 276.961 11.93 28.805 28.6 47.8 49.603 56.474 8.796 3.604 18.135 5.396 28.457 5.396 39.004 0 90.47-27.535 138.895-78.766l-72.602-203.305 165.233 59.095c0.768-1.802 1.669-3.297 2.437-5.1 15.964-38.359 15.964-80.65 0.031-119.050zM525.476 413.215c-3.174-3.205-6.871-5.673-10.998-7.342 0 0-35.574-13.599-69.499-25.262l26.030 72.868c0.573 1.096 3.041 4.803 6.195 7.967 13.302 13.302 34.939 13.302 48.261 0 13.24-13.302 13.312-34.98 0.010-48.23z" />
<glyph unicode="&#xe920;" glyph-name="Christmas-tree-toy2, candy" d="M921.6 584.53c0 150.804-122.266 273.070-273.070 273.070l-31.498-157.532c-32.328 13.496-67.799 21.002-105.032 21.002-150.804 0-273.070-122.266-273.070-273.070 0-37.233 7.496-72.704 21.002-105.032l-157.532-31.498c0-150.804 122.266-273.070 273.070-273.070l31.498 157.532c32.358-13.496 67.799-21.002 105.032-21.002 150.804 0 273.070 122.266 273.070 273.070 0 37.233-7.496 72.673-21.002 105.032l157.532 31.498zM320.973 114.033c-69.202 19.098-123.843 73.769-142.94 142.94l118.497 23.726c13.998-18.002 30.136-34.171 48.138-48.169l-23.695-118.497zM512 243.2c-113.101 0-204.8 91.699-204.8 204.8s91.699 204.8 204.8 204.8 204.8-91.699 204.8-204.8-91.699-204.8-204.8-204.8zM679.332 663.47l23.695 118.497c69.202-19.098 123.843-73.769 142.94-142.93l-118.497-23.695c-13.998 17.992-30.136 34.13-48.138 48.128zM632.535 478.167l-34.13 59.136-52.275-30.177v60.344h-68.26v-60.344l-52.265 30.177-34.14-59.136 52.265-30.167-52.265-30.167 34.14-59.136 52.265 30.177v-60.344h68.26v60.344l52.275-30.177 34.13 59.136-52.265 30.167z" />
<glyph unicode="&#xe921;" glyph-name="Caldron, witchcraft" d="M409.6 806.4c0-28.277-22.923-51.2-51.2-51.2s-51.2 22.923-51.2 51.2c0 28.277 22.923 51.2 51.2 51.2s51.2-22.923 51.2-51.2zM822.63 516.27h98.959v68.26h-453.192c5.857 10.066 9.462 21.637 9.462 34.13 0 37.673-30.525 68.27-68.26 68.27-37.745 0-68.27-30.597-68.27-68.27 0-12.493 3.604-24.064 9.472-34.13h-248.402v-68.26h99c-132.004-132.004-132.004-345.969 0-477.87h621.23c131.963 132.004 131.963 345.969 0 477.87zM792.463 106.67h-560.937c-39.434 48.005-60.856 107.674-60.856 170.629 0 72.028 28.058 139.766 79.002 190.7l48.261 48.271h248.197v-170.67c0-18.872 15.268-34.13 34.13-34.13 18.872 0 34.14 15.258 34.14 34.13v68.27c0 18.862 15.258 34.13 34.13 34.13s34.13-15.268 34.13-34.13v-136.53c0-18.872 15.268-34.14 34.14-34.14 18.862 0 34.13 15.268 34.13 34.14v214.057l23.429-23.398c50.934-50.934 78.971-118.6 78.971-190.628 0-62.976-21.443-122.634-60.867-170.701zM614.4 857.6c-56.535 0-102.4-45.865-102.4-102.4s45.865-102.4 102.4-102.4c56.535 0 102.4 45.865 102.4 102.4s-45.865 102.4-102.4 102.4zM614.4 721.070c-18.872 0-34.14 15.258-34.14 34.13s15.268 34.13 34.14 34.13c18.862 0 34.13-15.258 34.13-34.13s-15.268-34.13-34.13-34.13z" />
<glyph unicode="&#xe922;" glyph-name="Ghost" d="M853.33 584.53h-68.26c0 150.804-122.266 273.070-273.070 273.070s-273.070-122.266-273.070-273.070h-68.26c-37.704 0-68.27-30.556-68.27-68.26 0-18.872 7.67-35.942 19.999-48.271l116.531-116.531v-291.041c0.399-0.164 0.799-0.205 1.198-0.358 69.745-28.867 146.473-28.897 216.074 0.031 36.004 14.868 75.674 14.899 111.596-0.031 34.867-14.438 71.465-21.637 108.001-21.637 36.669 0 73.267 7.199 108.073 21.668 0.399 0.174 0.799 0.205 1.198 0.369v290.99l116.531 116.531c12.329 12.339 19.999 29.409 19.999 48.282 0 37.693-30.566 68.26-68.27 68.26zM716.8 379.72v-268.861c-39.895-7.844-82.473-4.475-122.87 12.257-50.596 20.972-109.199 22.641-163.86 0.041-38.144-15.841-80.804-20.634-122.87-12.37v268.933l-136.53 136.55h136.53v68.26c0 112.937 91.873 204.8 204.8 204.8s204.8-91.873 204.8-204.8v-68.26h136.53l-136.53-136.55zM477.86 550.4c0-18.849-15.28-34.13-34.13-34.13s-34.13 15.28-34.13 34.13c0 18.849 15.28 34.13 34.13 34.13s34.13-15.28 34.13-34.13zM563.2 448c0-18.849-22.923-34.13-51.2-34.13s-51.2 15.28-51.2 34.13c0 18.849 22.923 34.13 51.2 34.13s51.2-15.28 51.2-34.13zM614.4 550.4c0-18.849-15.28-34.13-34.13-34.13s-34.13 15.28-34.13 34.13c0 18.849 15.28 34.13 34.13 34.13s34.13-15.28 34.13-34.13z" />
<glyph unicode="&#xe923;" glyph-name="Icon_sales-channel" d="M896 947.2h-768c-70.4 0-124.8-57.6-128-128v-742.4c0-70.4 57.6-124.8 128-128h377.6c22.4 0 35.2 12.8 35.2 35.2v0c0 22.4-12.8 35.2-35.2 35.2v0h-377.6c-32 0-57.6 25.6-57.6 57.6v534.4h876.8v-124.8c0-22.4 12.8-35.2 35.2-35.2v0c22.4 0 35.2 12.8 35.2 35.2v0 336c3.2 67.2-54.4 124.8-121.6 124.8v0 0zM73.6 684.8v137.6c0 28.8 25.6 54.4 54.4 54.4h768c32 0 57.6-25.6 57.6-57.6v-137.6h-880v3.2zM931.2 102.4c25.6 32 41.6 73.6 41.6 121.6v0c0 115.2-92.8 201.6-204.8 204.8v0c-115.2 0-201.6-92.8-204.8-204.8v0c0-115.2 92.8-201.6 204.8-204.8v0 0c41.6 0 83.2 12.8 115.2 35.2v0l83.2-89.6c6.4-6.4 12.8-9.6 25.6-9.6v0 0c9.6 0 19.2 3.2 25.6 9.6v0c6.4 6.4 9.6 12.8 9.6 25.6 0 9.6-3.2 19.2-9.6 25.6v0l-86.4 86.4zM633.6 220.8c0 73.6 60.8 134.4 134.4 134.4v0c73.6 0 134.4-60.8 134.4-134.4v0c0-73.6-60.8-134.4-134.4-134.4v0c-73.6 0-134.4 60.8-134.4 134.4v0 0zM198.4 825.6c-25.6 0-44.8-22.4-44.8-44.8v0c0-28.8 22.4-51.2 51.2-51.2v0 0c28.8 0 51.2 22.4 51.2 51.2v0c-6.4 25.6-28.8 44.8-57.6 44.8v0zM361.6 825.6c-28.8 0-51.2-22.4-51.2-51.2v0c0-28.8 22.4-51.2 51.2-51.2v0 0 0c28.8 0 51.2 22.4 51.2 51.2v0c0 32-22.4 51.2-51.2 51.2v0zM524.8 825.6c-28.8 0-51.2-22.4-51.2-51.2v0c0-28.8 22.4-51.2 51.2-51.2v0 0c28.8 0 51.2 22.4 51.2 51.2v0c0 32-22.4 51.2-51.2 51.2v0z" />
<glyph unicode="&#xe924;" glyph-name="info" d="M518.4 547.2v0c-19.2 0-35.2-9.6-41.6-25.6v0c-3.2-9.6-6.4-22.4-6.4-32 0-3.2 0-6.4 0-9.6v0-214.4c0-3.2 0-6.4 0-9.6 0-9.6 3.2-22.4 6.4-32v0c6.4-12.8 25.6-25.6 41.6-25.6v0 0 0c19.2 0 32 9.6 41.6 25.6v0c3.2 9.6 6.4 22.4 6.4 32 0 3.2 0 6.4 0 9.6v0 217.6c0 3.2 0 6.4 0 9.6 0 9.6-3.2 22.4-6.4 32v0c-6.4 12.8-22.4 22.4-41.6 22.4v0 0 0zM521.6 729.6v0c-32 0-57.6-25.6-57.6-57.6v0 0c0-32 25.6-57.6 57.6-57.6v0 0c32 0 57.6 25.6 57.6 57.6v0 0c0 35.2-28.8 57.6-57.6 57.6v0zM512 960c-281.6 0-512-230.4-512-512v0c0-281.6 230.4-512 512-512v0c281.6 0 512 230.4 512 512v0c0 281.6-230.4 512-512 512v0zM512 3.2c-246.4 0-444.8 198.4-444.8 444.8v0c0 246.4 198.4 444.8 444.8 444.8v0c246.4 0 444.8-198.4 444.8-444.8v0c0-246.4-198.4-444.8-444.8-444.8v0z" />
<glyph unicode="&#xe925;" glyph-name="invoice" d="M748.8 918.4c-25.6 25.6-57.6 41.6-96 41.6v0h-428.8c-73.6 0-137.6-60.8-137.6-137.6v-339.2c0-16 12.8-28.8 28.8-28.8v0 0c16 0 28.8 12.8 28.8 28.8v0 339.2c0 19.2 9.6 41.6 25.6 54.4v0c12.8 12.8 35.2 25.6 54.4 25.6v0h358.4v-150.4c0-64 54.4-121.6 121.6-121.6h172.8v-553.6c0-44.8-35.2-80-80-80h-572.8c-19.2 0-41.6 9.6-54.4 25.6v0c-12.8 12.8-25.6 35.2-25.6 54.4v0 0 131.2c0 16-12.8 28.8-28.8 28.8v0c-16 0-28.8-12.8-28.8-28.8v0-134.4c0-38.4 12.8-73.6 41.6-96v0c28.8-25.6 64-41.6 99.2-41.6v0h572.8c76.8 0 137.6 60.8 137.6 137.6v604.8c0 38.4-12.8 73.6-41.6 96v0l-147.2 144zM704 684.8c-35.2 0-64 28.8-64 64v153.6h12.8c19.2 0 41.6-9.6 54.4-25.6l140.8-140.8c12.8-12.8 19.2-32 25.6-51.2v0h-169.6zM89.6 355.2v0c0-16 12.8-28.8 28.8-28.8v0h243.2l-83.2-83.2c-6.4-6.4-9.6-12.8-9.6-19.2s3.2-12.8 6.4-19.2v0c3.2-3.2 12.8-6.4 19.2-6.4v0 0c6.4 0 12.8 3.2 19.2 6.4v0l112 112c9.6 9.6 16 25.6 16 38.4s-6.4 28.8-16 38.4v0l-105.6 105.6c-3.2 3.2-12.8 6.4-19.2 6.4s-12.8-3.2-19.2-6.4v0c-3.2-3.2-6.4-12.8-6.4-19.2s3.2-12.8 6.4-19.2v0l80-80h-243.2c-16 3.2-28.8-12.8-28.8-25.6v0 0 0z" />
<glyph unicode="&#xe926;" glyph-name="kitchen" d="M835.2 960v0c-89.6 0-166.4-73.6-169.6-163.2v0-16c3.2-211.2 54.4-438.4 134.4-486.4v-352h70.4v345.6c83.2 51.2 134.4 281.6 134.4 502.4v0c3.2 92.8-73.6 169.6-169.6 169.6v0 0zM800 387.2c-41.6 115.2-67.2 246.4-70.4 387.2v0 22.4c3.2 41.6 32 76.8 67.2 89.6v0-499.2h3.2zM870.4 387.2v499.2c38.4-12.8 70.4-51.2 70.4-96v0c0-144-25.6-278.4-70.4-406.4v3.2zM528 342.4v617.6h-70.4v-617.6c-80-28.8-134.4-102.4-134.4-188.8 0-3.2 0-6.4 0-12.8v0c0-112 73.6-204.8 169.6-204.8s169.6 92.8 169.6 204.8c0 3.2 0 6.4 0 9.6 3.2 89.6-54.4 166.4-134.4 192 0-3.2 0 0 0 0zM496 6.4c-54.4 0-102.4 60.8-102.4 134.4s48 134.4 102.4 134.4 102.4-60.8 102.4-134.4-48-134.4-102.4-134.4v0zM51.2 960h-35.2v-1020.8h70.4v342.4h204.8v51.2c-3.2 406.4-86.4 627.2-240 627.2zM224 377.6v-32h-137.6v537.6l3.2-3.2h3.2c70.4-41.6 118.4-198.4 124.8-467.2l6.4-35.2z" />
<glyph unicode="&#xe927;" glyph-name="language" d="M1024 448c0 105.6-32 201.6-86.4 284.8v0l-22.4 28.8c0 0 0 3.2-3.2 3.2-9.6 12.8-22.4 28.8-35.2 41.6 0 0 0 3.2-3.2 3.2-9.6 9.6-22.4 22.4-38.4 35.2-3.2 3.2-9.6 6.4-12.8 9.6-9.6 6.4-19.2 16-28.8 22.4-6.4 3.2-12.8 9.6-22.4 12.8s-16 9.6-25.6 12.8c-6.4 3.2-16 6.4-25.6 12.8-9.6 3.2-16 6.4-25.6 9.6-3.2 3.2-12.8 6.4-22.4 9.6s-19.2 6.4-28.8 9.6c-6.4 3.2-16 3.2-22.4 6.4-12.8 3.2-22.4 3.2-35.2 6.4-6.4 0-12.8 3.2-19.2 3.2-16 0-35.2 0-54.4 0s-38.4 0-54.4-3.2c-6.4 0-12.8-3.2-19.2-3.2-12.8-3.2-22.4-3.2-35.2-6.4-6.4-3.2-16-3.2-22.4-6.4-9.6-3.2-19.2-6.4-28.8-9.6s-16-6.4-25.6-9.6c-9.6 0-16-3.2-25.6-6.4-9.6-6.4-16-9.6-22.4-12.8-9.6-3.2-19.2-9.6-25.6-12.8-6.4-6.4-16-9.6-22.4-12.8-9.6-6.4-19.2-16-32-22.4-3.2-3.2-6.4-6.4-9.6-9.6-16-12.8-28.8-25.6-41.6-38.4 0 0 0-3.2-3.2-3.2-12.8-12.8-22.4-25.6-35.2-38.4 0 0 0-3.2-3.2-3.2l-19.2-28.8c-54.4-83.2-86.4-179.2-86.4-284.8s32-201.6 86.4-284.8v0l22.4-28.8c0 0 0-3.2 3.2-3.2 9.6-12.8 22.4-28.8 35.2-41.6 0 0 0-3.2 3.2-3.2 9.6-9.6 22.4-22.4 38.4-35.2 3.2-3.2 6.4-6.4 12.8-9.6 9.6-6.4 19.2-16 32-22.4 6.4-3.2 12.8-9.6 22.4-12.8 9.6-6.4 16-9.6 25.6-12.8 6.4-3.2 16-6.4 22.4-12.8 9.6-3.2 16-6.4 25.6-9.6s16-6.4 25.6-9.6c9.6-3.2 19.2-6.4 28.8-9.6 6.4-3.2 16-3.2 22.4-6.4 12.8-3.2 22.4-3.2 35.2-6.4 6.4 0 12.8-3.2 19.2-3.2 12.8 0 32 0 51.2 0s38.4 0 54.4 3.2c6.4 0 12.8 3.2 19.2 3.2 12.8 3.2 22.4 3.2 35.2 6.4 6.4 3.2 16 3.2 22.4 6.4 9.6 3.2 19.2 6.4 28.8 9.6s16 6.4 25.6 9.6c9.6 3.2 16 6.4 25.6 9.6s16 6.4 25.6 12.8c9.6 3.2 16 9.6 25.6 12.8 6.4 3.2 12.8 9.6 22.4 12.8 9.6 6.4 19.2 16 32 22.4 3.2 3.2 9.6 6.4 12.8 9.6 16 12.8 28.8 25.6 41.6 38.4 0 0 0 3.2 3.2 3.2 12.8 12.8 22.4 25.6 35.2 41.6 0 0 0 3.2 3.2 3.2l22.4 28.8c44.8 76.8 76.8 172.8 76.8 278.4zM832 144c-6.4-6.4-16-16-22.4-22.4-3.2-3.2-6.4-6.4-9.6-9.6-6.4-6.4-12.8-12.8-22.4-16-6.4-3.2-9.6-6.4-16-9.6s-12.8-9.6-19.2-12.8c-6.4-3.2-12.8-9.6-19.2-12.8s-9.6-6.4-16-9.6c-6.4-3.2-16-6.4-22.4-9.6s-9.6-3.2-16-6.4-16-6.4-25.6-9.6c-3.2 0-6.4 0-9.6-3.2 28.8 44.8 48 105.6 64 172.8 51.2-9.6 99.2-25.6 134.4-51.2 3.2 3.2 0 3.2 0 0zM355.2 35.2c-6.4 3.2-9.6 3.2-16 6.4s-16 6.4-22.4 12.8c-6.4 3.2-9.6 6.4-16 9.6-9.6 0-12.8 6.4-19.2 9.6s-12.8 6.4-19.2 12.8c-6.4 3.2-9.6 6.4-16 9.6-6.4 6.4-16 9.6-22.4 16-3.2 3.2-6.4 6.4-9.6 9.6-6.4 6.4-16 16-22.4 22.4 0 0-3.2 3.2-3.2 3.2 38.4 22.4 86.4 38.4 134.4 51.2 16-67.2 35.2-128 64-172.8-3.2 0-6.4 0-9.6 3.2-6.4 0-16 3.2-22.4 6.4zM192 752c6.4 6.4 16 16 22.4 22.4 3.2 3.2 6.4 6.4 9.6 9.6 9.6 6.4 16 9.6 22.4 16 6.4 3.2 9.6 6.4 16 9.6s12.8 6.4 19.2 12.8c3.2 3.2 9.6 9.6 19.2 12.8 6.4 3.2 9.6 6.4 16 9.6s16 6.4 22.4 12.8c6.4 3.2 9.6 3.2 16 6.4 9.6 3.2 16 6.4 25.6 9.6 3.2 0 6.4 0 9.6 3.2-28.8-44.8-48-105.6-64-172.8-51.2 6.4-99.2 22.4-134.4 48-3.2-3.2 0-3.2 0 0zM668.8 860.8c6.4-3.2 9.6-3.2 16-6.4 9.6-3.2 16-6.4 22.4-12.8 6.4-3.2 9.6-6.4 16-9.6s12.8-6.4 19.2-12.8c6.4-3.2 12.8-6.4 19.2-12.8 6.4 0 9.6-3.2 16-6.4 6.4-6.4 12.8-9.6 22.4-16 3.2-3.2 6.4-6.4 9.6-9.6 6.4-6.4 16-16 22.4-22.4 0 0 3.2-3.2 3.2-3.2-38.4-22.4-86.4-38.4-134.4-51.2-16 67.2-35.2 128-64 172.8 3.2 0 6.4 0 9.6-3.2 6.4 0 16-3.2 22.4-6.4zM726.4 483.2c0 48-6.4 99.2-12.8 147.2 60.8 16 118.4 35.2 166.4 64 41.6-60.8 67.2-131.2 73.6-211.2h-227.2zM368 483.2c0 48 6.4 92.8 9.6 131.2 41.6-6.4 86.4-9.6 131.2-9.6s89.6 3.2 131.2 9.6c6.4-41.6 9.6-83.2 9.6-131.2h-281.6zM656 412.8c0-48-6.4-92.8-9.6-131.2-41.6 6.4-86.4 9.6-131.2 9.6s-89.6-3.2-131.2-9.6c-6.4 41.6-9.6 83.2-9.6 131.2h281.6zM630.4 684.8c-38.4-6.4-76.8-9.6-118.4-9.6s-80 3.2-118.4 9.6c28.8 131.2 80 204.8 118.4 204.8s89.6-73.6 118.4-204.8zM310.4 630.4c-6.4-48-12.8-96-12.8-147.2h-224c6.4 76.8 32 147.2 73.6 211.2 44.8-28.8 102.4-51.2 163.2-64zM297.6 412.8c0-48 6.4-99.2 12.8-147.2-60.8-16-118.4-35.2-166.4-64-41.6 60.8-67.2 131.2-73.6 211.2h227.2zM393.6 211.2c38.4 6.4 76.8 9.6 118.4 9.6s80-3.2 118.4-9.6c-28.8-131.2-80-204.8-118.4-204.8s-89.6 73.6-118.4 204.8zM713.6 265.6c6.4 48 12.8 96 12.8 147.2h227.2c-6.4-76.8-32-147.2-73.6-211.2-48 28.8-105.6 51.2-166.4 64z" />
<glyph unicode="&#xe928;" glyph-name="markup" d="M870.4 960h-617.6c-73.6 0-131.2-57.6-131.2-131.2v-214.4c0-19.2 16-32 32-32v0c19.2 0 32 16 32 32v211.2c0 35.2 28.8 64 64 64h614.4c19.2 0 32-6.4 44.8-19.2v0c9.6-9.6 19.2-28.8 19.2-44.8v0 0-665.6c0-19.2-6.4-32-19.2-44.8v0c-9.6-9.6-28.8-19.2-44.8-19.2v0h-281.6c-19.2 0-32-16-32-32v0c0-19.2 16-32 32-32h281.6c35.2 0 70.4 16 89.6 41.6v0c25.6 22.4 41.6 54.4 41.6 89.6v0 0 665.6c6.4 70.4-54.4 131.2-124.8 131.2v0zM489.6 716.8c-6.4 3.2-16 6.4-22.4 6.4-9.6 0-19.2-3.2-25.6-9.6v0l-76.8-76.8c-6.4-6.4-9.6-16-9.6-25.6s3.2-19.2 9.6-25.6v0c6.4-6.4 16-9.6 25.6-9.6s19.2 3.2 25.6 9.6v0l51.2 54.4 128-112c6.4-3.2 16-6.4 22.4-6.4v0c6.4 0 19.2 3.2 22.4 6.4v0l112 102.4v-54.4c0-19.2 16-32 32-32v0c19.2 0 32 16 32 32v0 140.8c0 19.2-16 32-32 32h-128c-19.2 0-32-16-32-32v0c0-19.2 16-32 32-32v0h48l-86.4-80-128 112zM790.4 435.2h-204.8c-19.2 0-32-16-32-32v0c0-19.2 16-32 32-32h204.8c19.2 0 32 16 32 32v0c0 16-16 32-32 32v0zM585.6 214.4h204.8c19.2 0 32 16 32 32v0c0 19.2-16 32-32 32h-204.8c-19.2 0-32-16-32-32v0c0-19.2 12.8-32 32-32v0zM256 534.4v0c-115.2 0-172.8-32-201.6-57.6-22.4-19.2-32-48-32-76.8v0-326.4c0-96 121.6-134.4 236.8-134.4 112 0 230.4 41.6 230.4 131.2v329.6c0 60.8-60.8 134.4-233.6 134.4zM89.6 249.6v54.4c44.8-25.6 96-41.6 150.4-41.6 6.4 0 9.6 0 19.2 0v0c3.2 0 9.6 0 19.2 0 54.4 0 105.6 16 150.4 41.6v0-57.6c0-3.2-6.4-80-166.4-80s-172.8 76.8-172.8 83.2v0zM256 464v0c102.4 0 150.4-28.8 163.2-54.4v0c0-3.2-6.4-76.8-160-76.8s-160 73.6-160 76.8c0 0 0 0 0 3.2v0c3.2 3.2 6.4 9.6 9.6 16v0c9.6 9.6 51.2 35.2 147.2 35.2v0zM259.2 0c-89.6 0-172.8 28.8-172.8 64v73.6c44.8-25.6 96-41.6 150.4-41.6 6.4 0 9.6 0 19.2 0v0c3.2 0 9.6 0 19.2 0 54.4 0 105.6 16 150.4 41.6v0-73.6c0-32-73.6-64-166.4-64v0z" />
<glyph unicode="&#xe929;" glyph-name="new-product" d="M336 240h-54.4v54.4c0 19.2-12.8 28.8-28.8 28.8v0c-16-3.2-28.8-16-28.8-28.8v-54.4h-57.6c-19.2 0-28.8-12.8-28.8-28.8v0c0-19.2 12.8-28.8 28.8-28.8v0h54.4v-54.4c0-19.2 12.8-28.8 28.8-28.8v0c19.2 0 28.8 12.8 28.8 28.8v54.4h57.6c19.2 0 28.8 12.8 28.8 28.8v0 0c3.2 16-12.8 28.8-28.8 28.8v0 0zM931.2 240v307.2h57.6c22.4 0 35.2 19.2 35.2 35.2v112c0 12.8-6.4 28.8-22.4 32v0l-428.8 201.6c-3.2 3.2-9.6 3.2-12.8 3.2s-9.6 0-12.8-3.2v0l-425.6-198.4c-16-9.6-22.4-19.2-22.4-38.4v-112c0-9.6 3.2-19.2 9.6-25.6v0c6.4-6.4 12.8-9.6 25.6-9.6h524.8v-307.2h-83.2c-19.2 0-28.8-12.8-28.8-28.8v0c0-19.2 12.8-28.8 28.8-28.8v0h339.2c25.6 0 51.2-22.4 51.2-51.2v0 0c0-25.6-22.4-51.2-51.2-51.2h-336c-19.2 0-28.8-12.8-28.8-28.8v0c0-19.2 12.8-28.8 28.8-28.8v0h339.2c60.8 0 105.6 51.2 105.6 105.6v0c3.2 60.8-38.4 108.8-92.8 115.2v0 0zM870.4 240h-150.4v307.2h150.4v-307.2zM691.2 608h-531.2v70.4l403.2 192 403.2-188.8v-73.6h-275.2zM252.8 470.4c-137.6 0-252.8-115.2-252.8-252.8v0c0-137.6 115.2-252.8 252.8-252.8v0c137.6 0 252.8 115.2 252.8 252.8v0c0 140.8-112 252.8-252.8 252.8v0zM252.8 25.6c-105.6 0-192 86.4-192 192v0c0 105.6 86.4 192 192 192v0c105.6 0 192-86.4 192-192v0c0-105.6-83.2-192-192-192v0z" />
<glyph unicode="&#xe92a;" glyph-name="passenger" d="M512 960c-281.6 0-512-230.4-512-512v0c0-281.6 230.4-512 512-512v0c281.6 0 512 230.4 512 512v0c0 281.6-230.4 512-512 512v0zM201.6 131.2c54.4 76.8 134.4 134.4 233.6 153.6h6.4v70.4c-60.8 25.6-102.4 86.4-102.4 153.6v0 0c0 92.8 76.8 169.6 169.6 169.6v0c92.8 0 169.6-76.8 169.6-169.6v-6.4c-3.2-67.2-41.6-124.8-102.4-147.2v0-70.4h3.2c96-19.2 182.4-76.8 236.8-153.6v0c-80-76.8-188.8-124.8-310.4-124.8s-224 44.8-304 124.8v0 0zM870.4 185.6c-51.2 67.2-115.2 121.6-195.2 147.2h-3.2l6.4 6.4c48 41.6 76.8 105.6 76.8 176v0 0c0 131.2-105.6 236.8-236.8 236.8v0 0 0c-131.2 0-236.8-105.6-236.8-236.8v0 0-6.4c3.2-70.4 35.2-128 80-169.6v0l-19.2-3.2c-76.8-32-140.8-80-185.6-144v0c-54.4 73.6-86.4 163.2-86.4 262.4v0 0c0 236.8 198.4 435.2 441.6 435.2v0 0 0c102.4 0 188.8-32 262.4-89.6v0c108.8-80 179.2-208 179.2-358.4 0-96-32-182.4-83.2-256v0 0z" />
<glyph unicode="&#xe92b;" glyph-name="printer" d="M867.2 553.6h-86.4c-19.2 0-41.6-16-41.6-41.6 0-19.2 16-41.6 41.6-41.6h86.4c19.2 0 41.6 16 41.6 41.6-3.2 22.4-22.4 41.6-41.6 41.6zM883.2 716.8h-67.2v86.4c0 83.2-67.2 150.4-150.4 150.4h-297.6c-86.4 0-153.6-67.2-153.6-150.4v-80h-73.6c-38.4-3.2-73.6-19.2-99.2-44.8-25.6-28.8-41.6-64-41.6-102.4v-304c0-38.4 16-73.6 41.6-99.2 28.8-28.8 64-41.6 102.4-41.6h70.4v-70.4c0-64 54.4-118.4 118.4-118.4h364.8c35.2 0 64 12.8 83.2 35.2 22.4 22.4 35.2 54.4 35.2 83.2v70.4h67.2c76.8 0 140.8 64 140.8 140.8v304c0 76.8-64 140.8-140.8 140.8zM739.2 60.8c0-22.4-19.2-41.6-41.6-41.6h-364.8c-22.4 0-41.6 19.2-41.6 41.6v70.4h444.8l3.2-70.4zM294.4 720v83.2c0 41.6 35.2 73.6 73.6 73.6h297.6c41.6 0 73.6-35.2 73.6-73.6v-80h-444.8zM883.2 208h-742.4c-19.2 0-32 6.4-44.8 19.2s-19.2 25.6-19.2 44.8v304c0 19.2 6.4 32 19.2 44.8s25.6 19.2 44.8 19.2h742.4c35.2 0 64-28.8 64-64v-304c0-35.2-28.8-64-64-64z" />
<glyph unicode="&#xe92c;" glyph-name="privacy-policy" d="M764.8 940.8h-505.6c-3.2 0-6.4 0-12.8 0-131.2 0-240-102.4-246.4-233.6v0-515.2c6.4-131.2 115.2-233.6 246.4-233.6 3.2 0 6.4 0 12.8 0v0h512c3.2 0 6.4 0 6.4 0 131.2 0 240 105.6 246.4 233.6v0 515.2c-6.4 131.2-115.2 233.6-246.4 233.6-3.2 0-6.4 0-12.8 0v0 0zM947.2 179.2c-3.2-86.4-76.8-156.8-163.2-156.8-3.2 0-3.2 0-6.4 0v0h-531.2c0 0-3.2 0-6.4 0-86.4 0-160 67.2-163.2 156.8v0 534.4c3.2 86.4 73.6 156.8 163.2 156.8 3.2 0 3.2 0 6.4 0v0h531.2c0 0 3.2 0 6.4 0 86.4 0 160-67.2 163.2-156.8v0-534.4zM547.2 672h-185.6c-3.2 0-6.4 0-12.8-3.2v0c-3.2-3.2-3.2-6.4-3.2-12.8v0 0-422.4c0-3.2 0-6.4 3.2-12.8v0c3.2-3.2 6.4-3.2 12.8-3.2v0h96c3.2 0 6.4 0 12.8 3.2v0c3.2 3.2 3.2 6.4 3.2 12.8v0 0 137.6h76.8c3.2 0 6.4 0 12.8 0 44.8 0 86.4 16 121.6 38.4v0c28.8 22.4 48 60.8 48 102.4 0 3.2 0 6.4 0 12.8v0c0 3.2 0 6.4 0 6.4 0 41.6-19.2 80-48 102.4v0c-41.6 22.4-83.2 38.4-128 38.4-3.2 0-6.4 0-9.6 0v0 0zM588.8 476.8c-12.8-6.4-22.4-16-38.4-16h-76.8v115.2h76.8c16 0 28.8-6.4 38.4-16v0c6.4-12.8 16-22.4 16-38.4v-6.4c-3.2-9.6-9.6-25.6-16-38.4v0z" />
<glyph unicode="&#xe92d;" glyph-name="product" d="M960 758.4c-6.4 112-102.4 201.6-220.8 201.6h-451.2c-115.2 0-208-89.6-217.6-198.4v0l-51.2-585.6c0-6.4 0-9.6 0-19.2 0-121.6 99.2-220.8 220.8-220.8h550.4c3.2 0 9.6 0 16 0 57.6 3.2 115.2 32 150.4 73.6v0c32 38.4 51.2 89.6 51.2 144 0 6.4 0 9.6 0 19.2v0l-48 585.6zM800 9.6c-3.2 0-6.4 0-9.6 0h-553.6c-80 0-147.2 67.2-147.2 147.2v0c0 3.2 0 6.4 0 16l54.4 582.4c6.4 73.6 70.4 131.2 144 131.2v0h457.6c76.8 0 140.8-57.6 147.2-137.6v0l44.8-585.6c0-3.2 0-6.4 0-9.6-6.4-73.6-64-140.8-137.6-144v0zM732.8 771.2c-19.2 0-38.4-19.2-38.4-38.4v0 0c0 0 0 0 0-3.2 0-64-22.4-118.4-57.6-163.2v0c-28.8-28.8-73.6-48-121.6-48-3.2 0-6.4 0-9.6 0v0c-3.2 0-6.4 0-9.6 0-48 0-89.6 19.2-121.6 48v0c-38.4 48-60.8 105.6-60.8 169.6v0 0c0 19.2-16 38.4-38.4 38.4v0c-16-3.2-35.2-16-35.2-38.4v0 0c0-83.2 28.8-156.8 80-217.6v0c44.8-44.8 105.6-70.4 172.8-70.4 3.2 0 6.4 0 9.6 0v0c3.2 0 6.4 0 9.6 0 67.2 0 128 25.6 172.8 70.4v0c48 54.4 76.8 131.2 76.8 214.4 0 3.2 0 3.2 0 6.4v0c12.8 19.2-6.4 32-28.8 32 3.2 0 3.2 0 0 0v0 0z" />
<glyph unicode="&#xe92e;" glyph-name="room-service" d="M592 192v0c-22.4 0-38.4-19.2-38.4-38.4v0c0-22.4 19.2-38.4 38.4-38.4v0 0c22.4 0 38.4 19.2 38.4 38.4v0c3.2 22.4-16 38.4-38.4 38.4v0zM704 371.2l-9.6 3.2 6.4 6.4c54.4 51.2 89.6 121.6 89.6 204.8v284.8c-3.2 41.6-35.2 70.4-80 70.4v0h-400c-44.8 0-73.6-32-73.6-76.8v0 0-300.8c6.4-70.4 38.4-137.6 86.4-179.2v0l9.6-6.4-9.6-3.2-12.8-3.2c-169.6-70.4-288-230.4-310.4-412.8v-3.2h80c12.8 108.8 70.4 204.8 153.6 275.2v0-275.2h80v326.4c35.2 19.2 76.8 32 115.2 38.4h3.2v83.2c-70.4 32-118.4 99.2-118.4 182.4v0 0 124.8h400v-137.6c-6.4-76.8-54.4-137.6-118.4-166.4v0-83.2h3.2c182.4-35.2 323.2-182.4 348.8-368v-3.2h76.8c-22.4 192-144 348.8-320 419.2v0 0zM313.6 790.4v76.8h400v-80h-400zM592 32v0c-22.4 0-38.4-19.2-38.4-38.4v0c0-22.4 19.2-38.4 38.4-38.4v0 0c22.4 0 38.4 19.2 38.4 38.4v0c3.2 19.2-16 38.4-38.4 38.4v0zM473.6-9.6c0-22.4-19.2-38.4-38.4-38.4-22.4 0-38.4 19.2-38.4 38.4 0 22.4 19.2 38.4 38.4 38.4 22.4 3.2 38.4-16 38.4-38.4zM435.2 192c-22.4 0-38.4-19.2-38.4-38.4v0 0c0-22.4 19.2-38.4 38.4-38.4v0 0c22.4 0 38.4 19.2 38.4 38.4v0c0 22.4-16 38.4-38.4 38.4v0 0z" />
<glyph unicode="&#xe92f;" glyph-name="save" d="M720 768v99.2c0 51.2-41.6 92.8-92.8 92.8v0h-502.4c-51.2 0-92.8-41.6-92.8-92.8v-838.4c0-25.6 9.6-48 25.6-64v0c16-16 38.4-28.8 64-28.8v0 0h3.2c16 0 28.8 3.2 41.6 12.8v0l192 112c3.2 0 9.6 3.2 12.8 3.2s9.6 0 12.8-3.2v0l192-112c12.8-9.6 28.8-12.8 44.8-12.8v0 0c9.6 0 16 0 25.6 3.2v0c25.6 9.6 44.8 19.2 57.6 44.8v0c9.6 12.8 12.8 28.8 12.8 44.8v112c156.8 16 278.4 150.4 278.4 310.4v0c3.2 163.2-115.2 294.4-275.2 316.8v0 0zM652.8 28.8v0c0-3.2 0-9.6-3.2-12.8v0c-3.2-3.2-9.6-9.6-16-12.8v0c0 0-3.2 0-9.6 0-3.2 0-9.6 0-12.8 3.2v0l-192 112c-12.8 9.6-28.8 12.8-48 12.8s-32-3.2-48-12.8v0l-192-112c3.2-3.2 0-3.2-9.6-3.2v0 0c-9.6 0-12.8 3.2-16 9.6v0c-6.4 3.2-9.6 12.8-9.6 16v0 0 838.4c3.2 12.8 12.8 25.6 28.8 25.6h508.8c12.8 0 25.6-12.8 25.6-25.6v-99.2c-156.8-16-278.4-150.4-278.4-310.4v0c0-160 121.6-294.4 278.4-310.4v0l-6.4-118.4zM688 211.2c-137.6 0-246.4 108.8-246.4 246.4v0c0 137.6 108.8 246.4 246.4 246.4v0c137.6 0 246.4-108.8 246.4-246.4v0c-3.2-137.6-112-246.4-246.4-246.4v0 0zM803.2 492.8h-80v80c0 19.2-16 35.2-35.2 35.2v0c-19.2 0-35.2-16-35.2-35.2v0-80h-80c-19.2 0-35.2-16-35.2-35.2v0c0-19.2 16-35.2 35.2-35.2v0h80v-80c0-19.2 16-35.2 35.2-35.2v0c19.2 0 35.2 16 35.2 35.2v80h80c19.2 0 35.2 16 35.2 35.2v0c0 19.2-16 35.2-35.2 35.2v0z" />
<glyph unicode="&#xe930;" glyph-name="search" d="M803.2 201.6c80 80 134.4 192 134.4 316.8 0 102.4-35.2 195.2-92.8 272v0c-70.4 89.6-169.6 150.4-288 166.4h-3.2c-19.2 3.2-38.4 3.2-54.4 3.2-102.4 0-195.2-35.2-268.8-92.8v0c-92.8-76.8-156.8-179.2-166.4-297.6v-3.2c-3.2-16-3.2-35.2-3.2-54.4 0-102.4 35.2-195.2 92.8-268.8v0c80-102.4 208-166.4 345.6-166.4 86.4 0 166.4 25.6 236.8 70.4v0l150.4-195.2c9.6-12.8 19.2-16 35.2-16v0c12.8 0 19.2 3.2 28.8 9.6v0c12.8 9.6 16 19.2 16 35.2v0 0 0c0 12.8-3.2 19.2-9.6 28.8v0l-153.6 192zM720 227.2v0c-60.8-48-137.6-76.8-224-76.8-118.4 0-220.8 54.4-288 137.6v0c-48 64-76.8 140.8-76.8 224 0 16 0 32 3.2 48v0c12.8 102.4 64 185.6 137.6 243.2v0c60.8 48 137.6 76.8 224 76.8v0 0c16 0 32 0 48-3.2v0c102.4-12.8 185.6-64 243.2-137.6v0c48-60.8 76.8-137.6 76.8-224 0-115.2-57.6-220.8-144-288v0 0z" />
<glyph unicode="&#xe931;" glyph-name="star-full" d="M1024 566.4c-3.2 12.8-12.8 19.2-28.8 22.4l-313.6 44.8-137.6 284.8c-9.6 22.4-51.2 22.4-60.8 0l-140.8-281.6-313.6-44.8c-12.8-3.2-22.4-9.6-28.8-22.4-3.2-12.8 0-28.8 9.6-35.2l224-220.8-54.4-310.4c-3.2-12.8 3.2-28.8 12.8-35.2s22.4-9.6 38.4-3.2l278.4 147.2 278.4-147.2c3.2-3.2 9.6-3.2 16-3.2s12.8 3.2 19.2 6.4c9.6 6.4 16 19.2 12.8 35.2l-54.4 310.4 224 220.8c19.2 6.4 22.4 19.2 19.2 32z" />
<glyph unicode="&#xe932;" glyph-name="star" d="M809.6-41.6c-6.4 0-9.6 0-16 3.2l-281.6 150.4-278.4-147.2c-9.6-6.4-25.6-3.2-38.4 3.2-9.6 6.4-16 19.2-12.8 35.2l54.4 310.4-224 220.8c-12.8 9.6-16 22.4-12.8 35.2 3.2 9.6 12.8 19.2 28.8 22.4l313.6 44.8 137.6 281.6c9.6 22.4 51.2 22.4 60.8 0l140.8-281.6 313.6-44.8c12.8-3.2 22.4-9.6 28.8-22.4 3.2-12.8 0-28.8-9.6-35.2l-224-220.8 54.4-310.4c3.2-12.8-3.2-28.8-12.8-35.2s-16-9.6-22.4-9.6zM512 182.4c6.4 0 9.6 0 16-3.2l233.6-121.6-48 259.2c-3.2 9.6 3.2 22.4 9.6 32l192 182.4-262.4 38.4c-9.6 0-19.2 9.6-28.8 16l-112 236.8-115.2-236.8c-3.2-9.6-12.8-16-28.8-16l-262.4-38.4 192-182.4c6.4-6.4 9.6-19.2 9.6-32l-44.8-262.4 233.6 121.6c6.4 6.4 9.6 6.4 16 6.4z" />
<glyph unicode="&#xe933;" glyph-name="suitcase" d="M755.2 793.6h-19.2v19.2c0 80-64 147.2-147.2 147.2h-128c-80 0-147.2-64-147.2-147.2v-19.2h-44.8c-86.4 0-153.6-67.2-153.6-153.6v-483.2c0-86.4 67.2-153.6 153.6-153.6h38.4v-25.6c0-19.2 16-35.2 35.2-35.2v0c19.2 0 35.2 16 35.2 35.2v0 22.4h249.6v-25.6c0-19.2 16-35.2 35.2-35.2v0c19.2 0 35.2 16 35.2 35.2v25.6h60.8c86.4 0 153.6 67.2 153.6 153.6v486.4c-3.2 86.4-70.4 153.6-156.8 153.6v0zM380.8 812.8c0 41.6 35.2 80 80 80h128c41.6 0 80-35.2 80-80v-19.2h-288v19.2zM841.6 153.6c0-48-38.4-86.4-86.4-86.4h-486.4c-48 0-86.4 38.4-86.4 86.4v486.4c0 48 38.4 86.4 86.4 86.4h483.2c48 0 86.4-38.4 86.4-86.4v0-486.4zM624 659.2h-227.2c-16 0-25.6-12.8-25.6-25.6v0c0-16 12.8-25.6 25.6-25.6h227.2c16 0 25.6 12.8 25.6 25.6v0 0 0c3.2 12.8-9.6 25.6-25.6 25.6v0 0zM348.8 464v0c-16 0-25.6-12.8-25.6-25.6v0 0-227.2c0-16 12.8-25.6 25.6-25.6v0 0 0c16 0 25.6 12.8 25.6 25.6v0 0 227.2c0 16-12.8 25.6-25.6 25.6v0 0zM512 464c-16 0-25.6-12.8-25.6-25.6v0-227.2c0-16 12.8-25.6 25.6-25.6v0c16 0 25.6 12.8 25.6 25.6v0 227.2c0 16-9.6 25.6-25.6 25.6v0 0zM678.4 464v0c-16 0-25.6-12.8-25.6-25.6v0 0-227.2c0-16 12.8-25.6 25.6-25.6v0 0c16 0 25.6 12.8 25.6 25.6v0 0 227.2c-3.2 16-16 25.6-25.6 25.6v0 0z" />
<glyph unicode="&#xe934;" glyph-name="surf" d="M998.4 937.6c-22.4 22.4-67.2 28.8-131.2 19.2v0c-73.6-9.6-144-35.2-214.4-76.8v0l-6.4-6.4c-6.4-9.6-9.6-19.2-6.4-32v0h3.2c6.4-6.4 22.4-6.4 32-3.2 160 89.6 272 80 288 64 9.6-16 16-32 9.6-54.4-3.2-64-19.2-128-48-185.6l-3.2-3.2c-38.4-80-92.8-156.8-163.2-224-6.4-6.4-19.2-19.2-25.6-25.6-32-32-67.2-64-108.8-96l-9.6-6.4c-3.2-3.2-6.4-6.4-6.4-16 0-6.4 0-16 3.2-19.2s6.4-6.4 16-6.4c6.4 0 16 0 19.2 3.2 44.8 35.2 83.2 73.6 118.4 108.8l22.4 22.4c169.6 169.6 230.4 342.4 230.4 448 6.4 35.2 0 64-19.2 89.6zM432 393.6c0-6.4 3.2-9.6 6.4-19.2 3.2-3.2 9.6-6.4 19.2-6.4s9.6 3.2 19.2 6.4l352 352c0 3.2 3.2 12.8 3.2 19.2s-3.2 9.6-6.4 19.2c-3.2 3.2-9.6 6.4-16 6.4v0c-6.4 0-16 0-22.4-6.4l-352-352c0-6.4-3.2-9.6-3.2-19.2zM592 272c-6.4 0-9.6 0-19.2-3.2-44.8-44.8-92.8-80-134.4-108.8l-35.2 163.2c0 0 0 0 0 3.2v3.2c0 3.2 0 3.2-3.2 6.4s-6.4 6.4-16 6.4l-163.2 35.2c76.8 96 163.2 201.6 249.6 297.6l22.4 22.4c38.4 38.4 76.8 76.8 128 108.8l6.4 3.2 3.2 3.2c6.4 6.4 6.4 22.4 3.2 28.8v0l-3.2 3.2c-6.4 6.4-22.4 6.4-32 3.2-38.4-25.6-86.4-64-140.8-118.4l-22.4-22.4c-115.2-121.6-220.8-249.6-316.8-384 0 0 0 0-3.2 0-35.2-54.4-64-96-89.6-147.2 0 0-3.2 0-3.2-3.2v0c0 0 0 0 0-3.2l-3.2-6.4c-16-48-19.2-76.8 0-92.8 19.2-19.2 48-16 76.8-9.6 6.4 0 9.6 0 19.2 0 3.2 0 6.4 0 9.6 0v-32c-3.2-32-3.2-57.6 16-76.8 6.4-6.4 19.2-16 32-16 28.8 0 83.2 25.6 150.4 67.2 112 73.6 201.6 144 281.6 214.4l3.2 6.4c3.2 3.2 6.4 9.6 6.4 19.2s-3.2 9.6-6.4 19.2c-6.4 6.4-9.6 9.6-16 9.6zM156.8 96c-9.6 9.6-22.4 9.6-38.4 9.6-9.6 0-22.4 0-32-3.2-9.6 0-22.4 0-32 3.2 0 22.4 6.4 38.4 16 54.4 3.2 9.6 16 25.6 22.4 35.2l131.2-28.8 28.8-134.4c-57.6-32-83.2-38.4-92.8-44.8 0 9.6 0 19.2 3.2 32 6.4 32 9.6 57.6-6.4 76.8zM265.6 291.2c-3.2 0-3.2 0 0 0-6.4 0-16 0-19.2-3.2l-3.2-3.2c-3.2-3.2-6.4-6.4-6.4-16 0-6.4 0-16 3.2-19.2l9.6-9.6c0 0 0 0 3.2 0l38.4-6.4 35.2-150.4c-3.2-3.2-6.4-6.4-16-6.4-3.2-3.2-6.4-3.2-9.6-6.4l-28.8 131.2c0 0 0 0 0 3.2v3.2c0 3.2 0 3.2-3.2 6.4s-6.4 6.4-16 6.4v0l-124.8 25.6c3.2 3.2 3.2 6.4 6.4 9.6 0 0 3.2 3.2 6.4 6.4l54.4-9.6c6.4-3.2 9.6 0 16 0s3.2 0 6.4 3.2l3.2 3.2c3.2 3.2 6.4 6.4 6.4 16 0 6.4 0 16-6.4 22.4-3.2 3.2-6.4 6.4-16 6.4v0l-35.2 6.4c3.2 3.2 3.2 6.4 6.4 9.6s6.4 6.4 9.6 16l166.4-44.8 38.4-166.4c-3.2-3.2-9.6-6.4-16-9.6-3.2-3.2-6.4-3.2-9.6-6.4l-28.8 144c0 0 0 0 0 3.2v3.2c0 3.2 0 3.2-3.2 6.4s-6.4 6.4-16 6.4l-51.2 19.2z" />
<glyph unicode="&#xe935;" glyph-name="tax-decrese" d="M995.2 326.4h-156.8c-16 0-28.8 12.8-28.8 28.8v0 0 0c0 16 12.8 28.8 28.8 28.8v0h89.6l-144 128-166.4-147.2c-3.2-3.2-9.6-6.4-16-6.4s-12.8 3.2-22.4 6.4v0l-96 96c-3.2 3.2-6.4 12.8-6.4 22.4 0 6.4 3.2 12.8 6.4 22.4v0c3.2 3.2 12.8 6.4 22.4 6.4s12.8-3.2 22.4-6.4v0l73.6-76.8 166.4 147.2c3.2 3.2 9.6 6.4 16 6.4v0 0 0c6.4 0 12.8-3.2 22.4-6.4v0l163.2-144v96c0 16 12.8 28.8 28.8 28.8v0 0c16 0 28.8-12.8 28.8-28.8v0 0-166.4c0-25.6-12.8-35.2-32-35.2v0 0zM128 556.8v-211.2c0-64 80-96 156.8-96 92.8 0 153.6 38.4 153.6 92.8v211.2c0 41.6-41.6 96-156.8 96s-153.6-51.2-153.6-92.8zM384 345.6c0-16-38.4-35.2-96-35.2s-102.4 16-102.4 35.2v32c28.8-12.8 57.6-22.4 92.8-22.4 3.2 0 6.4 0 6.4 0v0c3.2 0 6.4 0 6.4 0 32 0 64 6.4 92.8 22.4v0-32zM384 460.8c0-16-25.6-41.6-99.2-41.6s-99.2 28.8-99.2 41.6v22.4c25.6-12.8 57.6-22.4 92.8-22.4 3.2 0 6.4 0 9.6 0v0c3.2 0 6.4 0 6.4 0 32 0 64 6.4 92.8 22.4v0l-3.2-22.4zM380.8 563.2c0-12.8-25.6-41.6-96-41.6s-96 25.6-96 41.6c6.4 9.6 35.2 28.8 96 28.8s89.6-16 96-28.8v0zM812.8 249.6v0c-16 0-28.8-12.8-28.8-28.8v0 0c0-73.6-60.8-134.4-134.4-134.4h-457.6c-73.6 0-134.4 60.8-134.4 134.4v460.8c0 73.6 60.8 134.4 134.4 134.4h457.6c35.2 0 70.4-12.8 96-38.4v0c25.6-25.6 38.4-57.6 38.4-96v0 0c0-16 12.8-28.8 28.8-28.8v0c16 0 28.8 12.8 28.8 28.8v0 0c0 51.2-22.4 102.4-57.6 134.4v0c-35.2 35.2-80 57.6-134.4 57.6v0h-457.6c-105.6 0-192-83.2-192-192v-457.6c0-105.6 83.2-192 192-192h457.6c105.6 0 192 83.2 192 192v0c3.2 16-12.8 25.6-28.8 25.6v0 0 0z" />
<glyph unicode="&#xe936;" glyph-name="tax-increace" d="M995.2 579.2h-156.8c-16 0-28.8-12.8-28.8-28.8v0 0 0c0-16 12.8-28.8 28.8-28.8v0h89.6l-144-131.2-166.4 147.2c-3.2 3.2-9.6 6.4-16 6.4s-12.8-3.2-22.4-6.4v0l-96-96c-3.2-3.2-6.4-12.8-6.4-22.4 0-6.4 3.2-12.8 6.4-22.4v0c3.2-3.2 12.8-6.4 22.4-6.4s12.8 3.2 22.4 6.4v0l73.6 76.8 166.4-147.2c3.2-3.2 9.6-6.4 16-6.4v0 0 0c6.4 0 12.8 3.2 22.4 6.4v0l163.2 144v-96c0-16 12.8-28.8 28.8-28.8v0 0c16 0 28.8 12.8 28.8 28.8v0 0 166.4c0 25.6-12.8 38.4-32 38.4v0 0zM128 556.8v-211.2c0-64 80-96 156.8-96 92.8 0 153.6 38.4 153.6 92.8v211.2c0 41.6-41.6 96-156.8 96s-153.6-51.2-153.6-92.8zM384 345.6c0-16-38.4-35.2-96-35.2s-102.4 16-102.4 35.2v32c28.8-12.8 57.6-22.4 92.8-22.4 3.2 0 6.4 0 6.4 0v0c3.2 0 6.4 0 6.4 0 32 0 64 6.4 92.8 22.4v0-32zM384 460.8c0-16-25.6-41.6-99.2-41.6s-99.2 28.8-99.2 41.6v22.4c25.6-12.8 57.6-22.4 92.8-22.4 3.2 0 6.4 0 9.6 0v0c3.2 0 6.4 0 6.4 0 32 0 64 6.4 92.8 22.4v0l-3.2-22.4zM380.8 563.2c0-12.8-25.6-41.6-96-41.6s-96 25.6-96 41.6c6.4 9.6 35.2 28.8 96 28.8s89.6-16 96-28.8v0zM812.8 249.6v0c-16 0-28.8-12.8-28.8-28.8v0 0c0-73.6-60.8-134.4-134.4-134.4h-457.6c-73.6 0-134.4 60.8-134.4 134.4v460.8c0 73.6 60.8 134.4 134.4 134.4h457.6c35.2 0 70.4-12.8 96-38.4v0c25.6-25.6 38.4-57.6 38.4-96v0 0c0-16 12.8-28.8 28.8-28.8v0c16 0 28.8 12.8 28.8 28.8v0 0c0 51.2-22.4 102.4-57.6 134.4v0c-35.2 35.2-80 57.6-134.4 57.6v0h-457.6c-105.6 0-192-83.2-192-192v-457.6c0-105.6 83.2-192 192-192h457.6c105.6 0 192 83.2 192 192v0c3.2 16-12.8 25.6-28.8 25.6v0 0 0z" />
<glyph unicode="&#xe937;" glyph-name="total" d="M816 828.8h-608c-115.2 0-208-96-208-208v-345.6c0-115.2 96-208 208-208h611.2c115.2 0 208 96 208 208v345.6c-3.2 112-96 208-211.2 208v0zM963.2 272c0-80-67.2-150.4-150.4-150.4h-608c-80 0-150.4 67.2-150.4 150.4v348.8c0 80 64 150.4 150.4 150.4h611.2c80 0 150.4-67.2 150.4-150.4v0l-3.2-348.8zM220.8 633.6c-16 0-32-12.8-32-32v0-304c0-16 12.8-32 32-32v0c16 0 32 12.8 32 32v0 304c-3.2 19.2-16 32-32 32v0zM793.6 633.6c-16 0-32-12.8-32-32v0-304c0-16 12.8-32 32-32v0 0c16 0 32 12.8 32 32v0 0 304c-6.4 19.2-19.2 32-32 32v0zM515.2 608c-89.6 0-160-70.4-160-160v0c0-89.6 70.4-160 160-160v0c89.6 0 160 70.4 160 160v0c0 89.6-70.4 160-160 160v0zM515.2 348.8c-54.4 0-99.2 44.8-99.2 99.2v0c0 54.4 44.8 99.2 99.2 99.2v0c54.4 0 99.2-44.8 99.2-99.2v0 0c3.2-54.4-41.6-99.2-99.2-99.2v0 0z" />
<glyph unicode="&#xe938;" glyph-name="pickup" d="M902.4 924.8l-851.2-358.4c-28.8-12.8-51.2-41.6-51.2-76.8v0c0 0 0 0 0 0 0-22.4 9.6-41.6 22.4-57.6v0c12.8-16 35.2-25.6 54.4-25.6v0l339.2-25.6c6.4 0 12.8-6.4 16-12.8v0l73.6-339.2c6.4-25.6 25.6-44.8 44.8-54.4v0c9.6-6.4 22.4-9.6 38.4-9.6v0c9.6 0 19.2 3.2 28.8 6.4v0c22.4 9.6 41.6 25.6 51.2 44.8v0l352 803.2c0 6.4 3.2 16 3.2 28.8s-3.2 25.6-9.6 38.4v0c-12.8 28.8-41.6 48-76.8 48-12.8-3.2-22.4-6.4-35.2-9.6v0 0zM953.6 844.8l-345.6-800c-3.2-3.2-6.4-6.4-9.6-9.6v0c-3.2 0-3.2 0-6.4 0s-6.4 0-9.6 3.2v0c-3.2 3.2-6.4 6.4-9.6 9.6v0l-73.6 336c-9.6 35.2-38.4 64-76.8 64v0l-339.2 28.8c-3.2 0-6.4 0-9.6 3.2v0c-3.2 3.2-3.2 6.4-3.2 9.6 0 0 0 0 0 0v0c0 6.4 3.2 9.6 9.6 12.8v0l851.2 358.4c3.2 0 3.2 0 6.4 0 0 0 0 0 0 0v0c6.4 0 12.8-3.2 16-9.6v0c0 0 0-3.2 0-6.4 0 0 0 0 0 0v0 0z" />
<glyph unicode="&#xe939;" glyph-name="transfer" d="M982.4 729.6h-60.8v41.6c0 105.6-83.2 188.8-185.6 188.8h-448c-102.4 0-185.6-83.2-185.6-188.8v-41.6h-60.8c-16 0-32-12.8-32-32v0-166.4c0-16 12.8-32 32-32v0c16 0 32 12.8 32 32v134.4h28.8v-467.2c0-57.6 25.6-105.6 64-140.8v0-48c0 0 0 0 0 0 0-19.2 9.6-38.4 22.4-51.2v0c12.8-12.8 32-22.4 54.4-22.4h73.6c22.4 0 38.4 9.6 54.4 22.4v0c12.8 12.8 22.4 32 22.4 51.2 0 0 0 0 0 0v0 0h236.8c0 0 0 0 0 0 0-19.2 9.6-38.4 22.4-51.2v0c12.8-12.8 32-22.4 54.4-22.4h73.6c22.4 0 38.4 9.6 54.4 22.4v0c12.8 12.8 22.4 32 22.4 51.2 0 0 0 0 0 0v0 41.6c44.8 35.2 73.6 86.4 73.6 147.2v467.2h28.8v-134.4c0-16 12.8-32 32-32v0 0c16 0 32 12.8 32 32v0 166.4c-9.6 19.2-25.6 32-41.6 32v0 0zM348.8 6.4c0 0 0 0 0 0 0-6.4-3.2-9.6-6.4-12.8v0c-3.2-3.2-6.4-6.4-12.8-6.4v0h-102.4c-6.4 0-9.6 3.2-12.8 6.4v0c-3.2 3.2-6.4 9.6-6.4 12.8 0 0 0 0 0 0v0 16c25.6-9.6 54.4-16 86.4-16v0h54.4zM806.4 9.6c0 0 0 0 0 0 0-6.4-3.2-9.6-6.4-12.8v0c-3.2-3.2-6.4-6.4-12.8-6.4v0h-102.4c-9.6 0-19.2 9.6-19.2 19.2 0 0 0 0 0 0v0 0h64c25.6 0 51.2 3.2 73.6 12.8h-3.2l6.4-12.8zM854.4 188.8c0-60.8-48-108.8-108.8-108.8h-467.2c-60.8 0-108.8 48-108.8 108.8v195.2h684.8v-195.2zM854.4 448h-684.8v224h684.8v-224zM854.4 739.2h-684.8v44.8c0 60.8 48 108.8 108.8 108.8h464c60.8 0 108.8-48 108.8-108.8v0l3.2-44.8zM256 201.6h105.6c16 0 32 12.8 32 32v0c0 16-12.8 32-32 32v0h-105.6c-16 0-32-12.8-32-32v0 0c0-16 16-32 32-32v0 0zM659.2 201.6h108.8c16 0 32 12.8 32 32v0 0c0 16-12.8 32-32 32v0h-105.6c-16 0-32-12.8-32-32v0c0-16 12.8-32 28.8-32v0z" />
<glyph unicode="&#xe93a;" glyph-name="user" d="M873.6 115.2c0 115.2-96 208-211.2 208h-316.8c-115.2 0-211.2-92.8-211.2-208v0-86.4c0-19.2 16-35.2 35.2-35.2v0 0 0c19.2 0 35.2 16 35.2 35.2v86.4c0 76.8 64 140.8 140.8 140.8h313.6c0 0 0 0 0 0 38.4 0 73.6-16 99.2-41.6v0c25.6-25.6 41.6-60.8 41.6-99.2v-86.4c0-19.2 16-35.2 35.2-35.2v0c19.2 0 35.2 16 35.2 32v0l3.2 89.6zM502.4 387.2h3.2c140.8 0 256 115.2 256 252.8v0c-3.2 140.8-115.2 252.8-256 252.8 0 0 0 0 0 0v0c0 0 0 0-3.2 0-140.8 0-256-112-256-252.8v0 0c0-70.4 28.8-134.4 76.8-179.2v0c44.8-48 108.8-73.6 179.2-73.6v0 0zM502.4 822.4h3.2c102.4 0 182.4-80 185.6-182.4v0c0-102.4-83.2-182.4-185.6-182.4 0 0 0 0 0 0h-3.2c0 0 0 0 0 0-51.2 0-96 19.2-128 54.4v0c-35.2 32-54.4 80-54.4 131.2v0c0 99.2 80 179.2 182.4 179.2 0 0 0 0 0 0v0 0z" />
<glyph unicode="&#xe93b;" glyph-name="value" d="M870.4 454.4c12.8 3.2 25.6 3.2 38.4 3.2v0c9.6 0 19.2 0 25.6-3.2v0c-6.4 256-214.4 460.8-467.2 460.8v0c-259.2 0-467.2-208-467.2-467.2v0c0-259.2 208-467.2 467.2-467.2v0c105.6 0 204.8 35.2 281.6 96v0c-12.8 16-25.6 32-35.2 51.2v0c-67.2-51.2-150.4-83.2-243.2-83.2v0c-227.2 0-406.4 179.2-406.4 403.2v0c0 220.8 179.2 403.2 403.2 403.2v0c217.6 0 396.8-176 403.2-396.8 0 3.2 0 0 0 0zM444.8 220.8v0c6.4-6.4 12.8-9.6 22.4-9.6v0h12.8c16 0 28.8 16 28.8 32 0 0 0 0 0 0v0 12.8c28.8 3.2 51.2 16 73.6 32v0c22.4 19.2 35.2 44.8 35.2 76.8 0 0 0 3.2 0 3.2v0c0 0 0 3.2 0 3.2 0 19.2-6.4 38.4-16 51.2v0c-9.6 16-25.6 25.6-41.6 35.2v0c-19.2 9.6-38.4 19.2-64 25.6h-3.2c-22.4 6.4-41.6 16-60.8 22.4h3.2c-9.6 3.2-16 6.4-19.2 12.8v0c-3.2 6.4-6.4 12.8-6.4 19.2 0 9.6 3.2 19.2 12.8 25.6v0c12.8 6.4 28.8 12.8 44.8 12.8 3.2 0 3.2 0 6.4 0v0c0 0 3.2 0 3.2 0 16 0 32-3.2 41.6-12.8v0c9.6-6.4 12.8-12.8 16-22.4v0c0-9.6 6.4-19.2 12.8-25.6v0c6.4-3.2 12.8-6.4 19.2-6.4h9.6c16 0 32 12.8 32 32 0 0 0 0 0 0v0c0 16-6.4 35.2-16 48v0c-9.6 16-22.4 28.8-38.4 38.4v0c-12.8 6.4-25.6 12.8-41.6 16v0 22.4c0 9.6-3.2 16-9.6 22.4v0c-6.4 6.4-12.8 6.4-19.2 6.4 0 0 0 0 0 0v0h-12.8c-16 0-28.8-16-28.8-32 0 0 0 0 0 0v0-16c-25.6-3.2-48-16-67.2-32v0c-19.2-19.2-32-44.8-32-73.6 0 0 0 0 0 0v0c0 0 0-3.2 0-3.2 0-19.2 6.4-38.4 12.8-51.2v0c9.6-16 22.4-28.8 38.4-35.2v0c16-9.6 38.4-19.2 60.8-25.6h3.2c28.8-9.6 48-16 60.8-22.4 9.6-3.2 16-9.6 22.4-16v0c3.2-3.2 3.2-9.6 3.2-16 0 0 0 0 0-3.2v0c0 0 0 0 0-3.2 0-9.6-6.4-19.2-12.8-25.6v0c-16-9.6-32-12.8-51.2-12.8-3.2 0-6.4 0-9.6 0v0c-3.2 0-3.2 0-6.4 0-19.2 0-35.2 6.4-48 16v0c-9.6 6.4-16 12.8-16 25.6v0c0 16-16 28.8-32 28.8 0 0 0 0 0 0h-9.6c0 0 0 0 0 0-9.6 0-16-3.2-22.4-9.6v0c-6.4-6.4-9.6-12.8-9.6-22.4 0 0 0 0 0 0v0c0-19.2 6.4-38.4 19.2-51.2v0c12.8-16 25.6-28.8 44.8-38.4v0c12.8-6.4 28.8-12.8 44.8-16v0-12.8c0 0 0 0 0 0 0-9.6 6.4-19.2 9.6-25.6v0 0zM992 259.2h-51.2v54.4c0 19.2-12.8 32-32 32v0c-19.2 0-32-12.8-32-32v0-54.4h-54.4c-19.2 0-32-12.8-32-32v0c0-19.2 12.8-32 32-32v0h54.4v-54.4c0-19.2 12.8-32 32-32v0c19.2 0 32 12.8 32 32v0 54.4h51.2c19.2 0 32 12.8 32 32v0c0 16-12.8 32-32 32v0z" />
<glyph unicode="&#xe93c;" glyph-name="descont" d="M988.8 697.6c-19.2 0-35.2-12.8-35.2-35.2v-233.6c0-19.2 12.8-35.2 35.2-35.2v0c19.2 0 35.2 12.8 35.2 35.2v0 233.6c0 22.4-19.2 35.2-35.2 35.2v0zM41.6 784c3.2-3.2 9.6-3.2 12.8-3.2v0 0c12.8 0 25.6 6.4 32 19.2v0c28.8 54.4 80 92.8 144 92.8v0h233.6c19.2 0 35.2 12.8 35.2 35.2v0 0c0 19.2-12.8 35.2-35.2 35.2h-230.4c-92.8-3.2-169.6-57.6-208-131.2v0c0-6.4-3.2-12.8-3.2-19.2 0-12.8 6.4-22.4 19.2-28.8v0zM208 9.6c-64 9.6-115.2 57.6-134.4 121.6v0c-3.2 12.8-19.2 25.6-35.2 25.6-3.2 0-6.4 0-6.4 0v0c-12.8-3.2-25.6-19.2-25.6-35.2 0-3.2 0-6.4 0-6.4v0c25.6-89.6 99.2-160 192-172.8v0h3.2c19.2 0 32 12.8 35.2 28.8v0 3.2c3.2 19.2-9.6 32-28.8 35.2v0 0zM988.8 236.8c-19.2 0-35.2-12.8-35.2-35.2v-32c0-57.6-32-108.8-76.8-137.6v0c-9.6-6.4-19.2-19.2-19.2-28.8 0-6.4 3.2-12.8 3.2-19.2v0c6.4-9.6 19.2-19.2 28.8-19.2v0 0c6.4 0 12.8 3.2 19.2 6.4v0c67.2 41.6 108.8 112 108.8 198.4v0 0 28.8c6.4 19.2-12.8 38.4-28.8 38.4v0 0 0zM918.4 844.8v0c9.6 0 22.4 3.2 25.6 9.6v0c3.2 6.4 6.4 12.8 6.4 22.4s-3.2 22.4-9.6 25.6v0c-38.4 35.2-92.8 57.6-150.4 57.6v0h-92.8c-19.2 0-35.2-12.8-35.2-35.2v0c0-19.2 12.8-35.2 35.2-35.2h92.8c38.4 0 76.8-12.8 105.6-38.4v0c3.2-6.4 16-6.4 22.4-6.4v0 0zM35.2 316.8c19.2 0 35.2 12.8 35.2 35.2v233.6c0 19.2-12.8 35.2-35.2 35.2v0c-16 0-35.2-12.8-35.2-35.2v-233.6c0-16 19.2-35.2 35.2-35.2v0 0zM668.8 6.4h-233.6c-19.2 0-35.2-12.8-35.2-35.2v0c0-19.2 12.8-35.2 35.2-35.2h233.6c19.2 0 35.2 12.8 35.2 35.2v0c0 22.4-16 35.2-35.2 35.2v0zM675.2 697.6h-9.6c0 0 0 0-3.2 0-9.6 0-19.2-3.2-25.6-6.4v0c-6.4-3.2-9.6-9.6-12.8-12.8v0l-339.2-441.6c-3.2-6.4-6.4-12.8-6.4-22.4v0 0c0-9.6 3.2-19.2 9.6-25.6v0c6.4-6.4 12.8-9.6 25.6-9.6v0 0h12.8c9.6 0 19.2 3.2 25.6 6.4v0c6.4 3.2 9.6 9.6 12.8 12.8v0l339.2 444.8c3.2 6.4 6.4 12.8 6.4 25.6 0 0 0 0 0 3.2v0c3.2 12.8-16 25.6-35.2 25.6 3.2 0 0 0 0 0v0 0zM326.4 489.6v0c12.8-9.6 32-19.2 48-19.2v0 0c22.4 0 38.4 6.4 54.4 19.2v0c9.6 9.6 22.4 28.8 22.4 44.8v0c0 6.4 0 12.8 0 19.2 0 3.2 0 6.4 0 12.8 0 22.4-6.4 38.4-22.4 54.4v0c-12.8 9.6-32 19.2-48 19.2-22.4 0-38.4-6.4-54.4-22.4v0c-9.6-12.8-19.2-28.8-19.2-44.8v0c0-3.2 0-9.6 0-19.2s0-9.6 0-12.8c-3.2-19.2 3.2-35.2 19.2-51.2v0zM672 377.6c-12.8 9.6-32 19.2-48 19.2-22.4 0-38.4-6.4-54.4-22.4v0c-9.6-12.8-19.2-28.8-19.2-44.8v0c0-3.2 0-9.6 0-19.2s0-9.6 0-12.8v0c0-19.2 6.4-35.2 22.4-48v0l3.2-3.2c12.8-9.6 28.8-19.2 48-19.2v0 0c22.4 0 38.4 6.4 54.4 19.2v0c12.8 9.6 22.4 28.8 22.4 48v0c0 6.4 0 12.8 0 19.2s0 6.4 0 12.8c-9.6 19.2-16 38.4-28.8 51.2v0z" />
<glyph unicode="&#xe93d;" glyph-name="edit-values" d="M982.4 467.2l-54.4-54.4c0 12.8 3.2 32 3.2 44.8 0 67.2-16 131.2-44.8 185.6v-3.2c-28.8 54.4-64 99.2-108.8 134.4v0c-67.2 54.4-156.8 89.6-252.8 89.6-16 0-35.2 0-51.2-3.2h3.2c-115.2-16-211.2-73.6-275.2-156.8v0c-6.4-3.2-9.6-6.4-9.6-12.8s3.2-16 9.6-19.2v0c3.2-3.2 9.6-6.4 16-6.4s16 3.2 19.2 9.6v0c57.6 70.4 140.8 124.8 240 134.4v0c12.8 0 28.8 3.2 44.8 3.2 86.4 0 160-28.8 224-80v0c41.6-32 70.4-67.2 96-112v-3.2c22.4-48 38.4-102.4 38.4-160 0-12.8 0-28.8-3.2-41.6v0l-54.4 57.6c-3.2 3.2-9.6 6.4-16 6.4s-12.8-3.2-16-6.4v0c-3.2-3.2-6.4-9.6-6.4-16s3.2-12.8 6.4-16l99.2-99.2c3.2-3.2 9.6-6.4 16-6.4v0 0 0c6.4 0 12.8 3.2 16 6.4v0l96 96c3.2 3.2 6.4 9.6 6.4 16s-3.2 12.8-6.4 16v0c-3.2 3.2-9.6 6.4-16 6.4s-16-6.4-19.2-9.6v0 0zM787.2 220.8c-64-83.2-166.4-137.6-281.6-137.6-86.4 0-160 28.8-224 80v0c-64 51.2-108.8 124.8-131.2 204.8v3.2c-3.2 19.2-6.4 41.6-6.4 64 0 16 0 32 3.2 44.8v0l54.4-54.4c6.4-6.4 12.8-9.6 22.4-9.6v0 0 0c6.4 0 12.8 3.2 16 6.4v0c3.2 3.2 6.4 9.6 6.4 16s-3.2 12.8-6.4 16l-99.2 99.2c-3.2 3.2-9.6 6.4-16 6.4s-12.8 3.2-19.2-3.2l-96-96c-6.4 0-9.6-6.4-9.6-12.8s3.2-12.8 6.4-16v0c3.2-3.2 9.6-6.4 16-6.4s12.8 3.2 16 6.4l57.6 51.2c0-16 0-32 0-48 0-28.8 3.2-51.2 6.4-76.8v3.2c19.2-99.2 76.8-182.4 147.2-240v0c67.2-54.4 156.8-89.6 252.8-89.6v0 0 0c131.2 0 246.4 60.8 323.2 156.8v0c3.2 3.2 6.4 9.6 6.4 16s-3.2 16-9.6 19.2v0c-3.2 3.2-9.6 6.4-16 6.4-6.4 3.2-16 0-19.2-9.6v0 0zM576 336c-12.8-9.6-35.2-12.8-51.2-12.8-3.2 0-6.4 0-9.6 0v0c-3.2 0-3.2 0-6.4 0-16 0-38.4 6.4-51.2 12.8v0c-9.6 6.4-16 16-19.2 28.8v0c0 12.8-12.8 28.8-28.8 28.8v0 0h-9.6c-6.4 0-12.8-3.2-19.2-6.4v0c-6.4-3.2-6.4-9.6-6.4-19.2v0 0c0-16 6.4-35.2 16-51.2v0c9.6-16 28.8-28.8 44.8-38.4v0c12.8-6.4 32-12.8 48-12.8v0-16c0-6.4 3.2-12.8 6.4-19.2v0c3.2-6.4 9.6-6.4 19.2-6.4v0 0h9.6c6.4 0 12.8 3.2 19.2 9.6v0c3.2 3.2 6.4 9.6 6.4 16v0 0 16c28.8 3.2 51.2 12.8 70.4 32v0c19.2 16 35.2 44.8 35.2 76.8v6.4c0 16-6.4 38.4-12.8 51.2v0c-9.6 12.8-22.4 22.4-41.6 35.2v0c-16 9.6-41.6 16-60.8 22.4h-3.2c-22.4 6.4-41.6 12.8-60.8 22.4h3.2c-9.6 3.2-16 9.6-19.2 16v0c-3.2 6.4-6.4 12.8-6.4 19.2 0 9.6 6.4 19.2 12.8 28.8v0c12.8 6.4 28.8 12.8 44.8 12.8 3.2 0 3.2 0 6.4 0v0h3.2c16 0 32-3.2 44.8-12.8v0c9.6-6.4 16-12.8 16-22.4v0 0c0-9.6 3.2-16 9.6-19.2v0c3.2-3.2 9.6-6.4 16-6.4h9.6c12.8 0 28.8 12.8 28.8 28.8v0 0c0 16-6.4 32-12.8 44.8v0c-9.6 16-22.4 28.8-38.4 38.4v0c-12.8-3.2-25.6 3.2-44.8 6.4v0 12.8c0 6.4-3.2 12.8-9.6 16v0c-3.2 3.2-9.6 6.4-16 6.4v0 0h-12.8c-16 3.2-25.6-9.6-25.6-25.6v0 0-16c-28.8-3.2-48-12.8-67.2-32v0c-19.2-16-32-41.6-32-70.4v0 0-3.2c0-16 3.2-35.2 12.8-51.2v0c9.6-12.8 22.4-28.8 38.4-35.2v0c16-9.6 38.4-16 57.6-22.4h3.2c28.8-9.6 48-16 60.8-22.4 9.6-3.2 16-9.6 22.4-16v0c3.2-3.2 6.4-9.6 6.4-16 0 0 0 0 0-3.2v0c0 0 0 0 0-3.2 6.4-12.8 0-22.4-6.4-28.8v0 0z" />
<glyph unicode="&#xe93e;" glyph-name="entrada-saida" d="M262.4 755.2c-12.8 12.8-35.2 12.8-51.2 0-12.8-12.8-12.8-35.2 0-51.2l275.2-275.2c6.4-6.4 19.2-9.6 25.6-9.6s19.2 3.2 25.6 9.6l275.2 275.2c12.8 12.8 12.8 35.2 0 51.2-12.8 12.8-35.2 12.8-51.2 0l-214.4-211.2v380.8c0 22.4-12.8 35.2-35.2 35.2s-35.2-12.8-35.2-35.2v-380.8l-214.4 211.2zM864 953.6h-185.6v-70.4h185.6c19.2 0 32-12.8 32-32v-585.6h-176c-6.4 0-12.8-3.2-19.2-6.4l-86.4-54.4h-214.4l-83.2 51.2c-6.4 3.2-9.6 6.4-19.2 6.4h-169.6v585.6c0 19.2 12.8 32 32 32h185.6v73.6h-185.6c-57.6 0-102.4-44.8-102.4-102.4v-809.6c-3.2-60.8 44.8-105.6 102.4-105.6h704c57.6 0 102.4 44.8 102.4 102.4v809.6c3.2 57.6-44.8 105.6-102.4 105.6zM864 3.2h-704c-19.2 0-32 12.8-32 32v153.6h163.2l89.6-54.4c6.4-3.2 9.6-6.4 19.2-6.4h230.4c6.4 0 12.8 3.2 19.2 6.4l89.6 54.4h163.2v-153.6c-6.4-16-19.2-32-38.4-32z" />
<glyph unicode="&#xe93f;" glyph-name="exchange" d="M512 960c-284.8 0-512-227.2-512-512v0c0-284.8 227.2-512 512-512v0c284.8 0 512 227.2 512 512v0c0 284.8-227.2 512-512 512v0zM512 3.2c-246.4 0-444.8 198.4-444.8 444.8v0c0 246.4 198.4 444.8 444.8 444.8v0c246.4 0 444.8-201.6 444.8-444.8v0c0-246.4-198.4-444.8-444.8-444.8v0zM656 528c28.8 0 51.2 25.6 51.2 51.2v0 0 0c0 12.8-6.4 28.8-12.8 38.4l-115.2 115.2c-6.4 6.4-12.8 9.6-25.6 9.6s-16-3.2-25.6-9.6v0c-6.4-6.4-9.6-12.8-9.6-25.6 0-9.6 3.2-16 9.6-25.6l92.8-92.8h-313.6c-16 0-32-12.8-32-32v0c0-16 12.8-32 32-32v0c0 3.2 348.8 3.2 348.8 3.2zM707.2 390.4h-352c-28.8 0-51.2-25.6-51.2-51.2v0 0c0-12.8 6.4-28.8 12.8-38.4l115.2-115.2c6.4-6.4 12.8-9.6 25.6-9.6v0 0 0c9.6 0 16 3.2 25.6 9.6v0c6.4 6.4 9.6 12.8 9.6 25.6 0 9.6-3.2 16-9.6 25.6v0l-92.8 92.8h316.8c16 0 32 12.8 32 32v0c0 9.6-12.8 28.8-32 28.8v0 0z" />
<glyph unicode="&#xe940;" glyph-name="firepith" d="M534.4 396.8l-19.2 19.2-28.8-28.8c-89.6-83.2-137.6-163.2-137.6-249.6 0-92.8 73.6-166.4 163.2-172.8v0h6.4c3.2 0 3.2 0 6.4 0v0h6.4c86.4 6.4 153.6 83.2 153.6 169.6v0 0c-3.2 96-54.4 182.4-150.4 262.4v0zM515.2 38.4v0h-6.4c-16 3.2-32 16-32 35.2v0 0c0 16 12.8 35.2 35.2 35.2v0 0c16 0 35.2-12.8 35.2-32v0 0c0-19.2-12.8-35.2-32-38.4v0zM608 108.8c-9.6 32-35.2 51.2-60.8 60.8v0c-9.6 3.2-19.2 6.4-35.2 6.4-44.8 0-83.2-28.8-96-70.4v0c-3.2 9.6-6.4 19.2-6.4 35.2v0 0c0 54.4 32 118.4 96 179.2l3.2 3.2 6.4-3.2 6.4-6.4c57.6-60.8 89.6-118.4 89.6-172.8v0c3.2-9.6 0-22.4-3.2-32v0 0zM0 928h1024v-70.4h-1024v70.4zM0 726.4h70.4v-752h204.8v544h480v-547.2h204.8v755.2h64v67.2h-1024v-67.2zM134.4 726.4h752v-681.6h-70.4v480c-3.2 35.2-32 60.8-70.4 60.8v0h-486.4c-35.2-3.2-57.6-35.2-57.6-70.4v0-480h-70.4l3.2 691.2z" />
<glyph unicode="&#xe941;" glyph-name="hotel-2" d="M336 416h19.2c96 6.4 176 60.8 220.8 144v0l3.2 6.4 60.8-60.8 80 80h121.6l102.4 102.4-102.4 102.4h-256l-3.2 6.4c-44.8 96-137.6 160-249.6 160v0 0c-3.2 0-6.4 0-9.6 0-144-3.2-265.6-124.8-265.6-272 0-3.2 0-3.2 0-6.4v0c3.2-147.2 124.8-265.6 272-265.6 3.2 3.2 6.4 3.2 6.4 3.2v0 0zM336 889.6v0c92.8 0 169.6-60.8 195.2-144v0l6.4-25.6h275.2l32-32-32-32h-118.4l-51.2-57.6-54.4 54.4h-48l-6.4-25.6-3.2-6.4c-28.8-80-102.4-137.6-195.2-137.6v0 0 0c-112-3.2-204.8 89.6-204.8 201.6v0 0c3.2 115.2 92.8 204.8 204.8 204.8v0 0 0zM233.6 652.8c19.2 0 32 16 32 32v0c0 19.2-16 32-32 32v0 0c-19.2 0-32-16-32-32v0c0-16 12.8-32 32-32v0zM1008 400v0c-19.2 28.8-51.2 51.2-86.4 51.2-19.2 0-35.2-6.4-54.4-16v0l-198.4-121.6c-9.6 19.2-28.8 28.8-48 28.8v0 0h-560c-35.2-3.2-60.8-32-60.8-70.4v-182.4c3.2-25.6 25.6-51.2 51.2-57.6v0l403.2-86.4c6.4 0 19.2-3.2 25.6-3.2 35.2 0 70.4 9.6 96 28.8v0l403.2 272c28.8 22.4 48 57.6 48 96 0 19.2-3.2 35.2-16 54.4v0c3.2 3.2-3.2 6.4-3.2 6.4zM937.6 297.6l-406.4-272c-16-6.4-32-16-51.2-16-6.4 0-16 0-22.4 3.2v0l-390.4 86.4v176h508.8v-60.8c-9.6-3.2-22.4-6.4-32-6.4v0 0h-172.8v-70.4h179.2c57.6 0 105.6 35.2 124.8 92.8v0c0 3.2 3.2 6.4 3.2 9.6l227.2 134.4 3.2 3.2h3.2c3.2 0 6.4 0 9.6 0 16 0 25.6-6.4 32-19.2v0-3.2l3.2-3.2c3.2-6.4 3.2-9.6 3.2-19.2-3.2-9.6-12.8-28.8-22.4-35.2v0 0z" />
<glyph unicode="&#xe942;" glyph-name="doc-digital" d="M796.8 531.2c0 6.4 0 12.8 0 19.2 0 0 0 0 0 0 0 134.4-96 246.4-224 268.8h-3.2c-16 3.2-32 3.2-48 3.2-128 0-233.6-86.4-265.6-201.6v-3.2c-144-6.4-259.2-128-259.2-272v0c0-150.4 121.6-272 272-272h521.6c124.8 0 227.2 102.4 227.2 227.2v0c6.4 124.8-96 227.2-220.8 230.4 0 0 0 0 0 0zM796.8 121.6h-521.6c-124.8 0-224 99.2-224 224v0c0 124.8 99.2 224 224 224v0h28.8l3.2 19.2c19.2 105.6 112 182.4 220.8 182.4 12.8 0 28.8 0 41.6-3.2v0c105.6-19.2 182.4-112 182.4-220.8 0 0 0 0 0 0v0c0 0 0 0 0 0 0-12.8 0-28.8-3.2-41.6v0l-6.4-35.2 35.2 6.4c6.4 0 16 0 22.4 0 0 0 0 0 0 0v0c99.2 0 179.2-80 179.2-179.2v0c-3.2-96-83.2-176-182.4-176v0 0zM659.2 441.6h-108.8v108.8c0 12.8-9.6 25.6-25.6 25.6v0c-12.8 0-25.6-9.6-25.6-25.6v0-108.8h-108.8c-12.8 0-25.6-9.6-25.6-25.6v0 0c0-12.8 9.6-25.6 25.6-25.6v0h108.8v-108.8c0-12.8 9.6-25.6 25.6-25.6v0 0c12.8 0 25.6 9.6 25.6 25.6v0 108.8h108.8c12.8 0 25.6 9.6 25.6 25.6v0c0 16-12.8 25.6-25.6 25.6 0 0 0 0 0 0z" />
<glyph unicode="&#xe943;" glyph-name="document" d="M934.4 624v54.4c0 0 0 0 0 0 0 38.4-16 73.6-41.6 99.2l-140.8 140.8c-22.4 25.6-57.6 41.6-99.2 41.6 0 0 0 0 0 0h-422.4c-80 0-140.8-64-140.8-140.8v0-742.4c0-76.8 64-140.8 140.8-140.8v0h563.2c76.8 0 140.8 64 140.8 140.8v0 547.2zM704 870.4l140.8-140.8c12.8-12.8 22.4-32 22.4-51.2 0 0 0 0 0 0v0-19.2h-163.2c-32 0-57.6 25.6-57.6 57.6v172.8h6.4c0 0 0 0 0 0 19.2 0 38.4-6.4 51.2-19.2v0 0zM793.6 6.4h-563.2c-38.4 0-70.4 32-73.6 70.4v742.4c0 38.4 32 70.4 73.6 70.4h345.6v-176c0-70.4 57.6-128 128-128h163.2v-512c0-35.2-32-67.2-73.6-67.2v0 0zM364.8 752c0-28.8-22.4-51.2-51.2-51.2s-51.2 22.4-51.2 51.2 22.4 51.2 51.2 51.2 51.2-22.4 51.2-51.2zM313.6 595.2c-28.8 0-51.2-22.4-51.2-51.2v0c0-28.8 22.4-51.2 51.2-51.2v0 0 0c28.8 0 51.2 22.4 51.2 51.2v0 0 0c0 28.8-22.4 51.2-51.2 51.2 0 0 0 0 0 0zM364.8 332.8c0-28.8-22.4-51.2-51.2-51.2s-51.2 22.4-51.2 51.2c0 28.8 22.4 51.2 51.2 51.2s51.2-19.2 51.2-51.2zM313.6 179.2v0c-28.8 0-51.2-22.4-51.2-51.2v0c0-28.8 22.4-51.2 51.2-51.2v0c28.8 0 51.2 22.4 51.2 51.2v0 0 0c0 25.6-22.4 51.2-51.2 51.2v0c0 0 0 0 0 0z" />
<glyph unicode="&#xe944;" glyph-name="baby" d="M1020.8 268.8c-19.2 140.8-134.4 243.2-275.2 252.8l108.8 108.8c51.2 51.2 51.2 134.4 0 188.8s-134.4 51.2-188.8 0l-131.2-131.2-134.4 188.8c-6.4 6.4-16 19.2-22.4 28.8-41.6 32-99.2 54.4-156.8 54.4v0c-60.8 0-115.2-22.4-156.8-64-3.2-6.4-6.4-9.6-12.8-12.8-38.4-44.8-54.4-105.6-51.2-160 3.2-60.8 32-112 76.8-150.4l188.8-160-112-112c-22.4-22.4-38.4-60.8-38.4-96s12.8-67.2 38.4-92.8c22.4-22.4 60.8-38.4 96-38.4s67.2 12.8 96 38.4l99.2 99.2c0-6.4 0-16 0-22.4 19.2-147.2 147.2-252.8 291.2-252.8 12.8 0 28.8 0 38.4 3.2 156.8 19.2 268.8 166.4 246.4 329.6zM128 630.4c-60.8 54.4-67.2 140.8-16 201.6 3.2 3.2 3.2 3.2 6.4 6.4 28.8 28.8 64 38.4 99.2 38.4v0c41.6 3.2 73.6-12.8 102.4-38.4 3.2-3.2 12.8-12.8 16-16l144-195.2-48-48c-19.2-12.8-35.2-28.8-48-48l-64-64-192 163.2zM278.4 166.4c-19.2-19.2-54.4-19.2-76.8 0-6.4 6.4-16 22.4-16 35.2 0 16 3.2 28.8 16 35.2l240 240c6.4 12.8 19.2 22.4 32 32l246.4 243.2c19.2 28.8 54.4 28.8 76.8 6.4s19.2-54.4 0-76.8l-169.6-169.6 19.2-28.8c32-44.8 32-102.4 0-147.2-19.2-28.8-48-44.8-80-48s-64 3.2-92.8 22.4l-25.6 22.4-169.6-166.4zM758.4 12.8c-115.2-16-224 64-240 182.4 0 3.2 0 6.4 0 12.8 70.4-12.8 147.2 16 192 80 32 44.8 44.8 99.2 35.2 150.4 96-6.4 179.2-83.2 195.2-182.4 16-115.2-64-227.2-182.4-243.2z" />
<glyph unicode="&#xe945;" glyph-name="bad" d="M960 448v249.6c-3.2 92.8-80 169.6-176 169.6-3.2 0-3.2 0-6.4 0v0h-524.8c-3.2 0-3.2 0-6.4 0-96 0-172.8-73.6-176-169.6v0-249.6c-41.6-12.8-70.4-51.2-70.4-96v-137.6c0-44.8 28.8-83.2 70.4-96v0-64c0-12.8 12.8-25.6 25.6-25.6v0c12.8 0 25.6 12.8 25.6 25.6v0 57.6h784v-57.6c0-12.8 12.8-25.6 25.6-25.6v0c12.8 0 25.6 12.8 25.6 25.6v0 64c41.6 12.8 67.2 51.2 67.2 96v137.6c3.2 44.8-25.6 80-64 96v0 0zM252.8 812.8h521.6c0 0 3.2 0 6.4 0 67.2 0 121.6-51.2 124.8-118.4v0-137.6c-22.4 38.4-60.8 67.2-108.8 70.4v0h-153.6c-54.4 0-102.4-32-124.8-80v0c-22.4 44.8-64 73.6-112 80v0h-160c-54.4 0-99.2-28.8-124.8-73.6v0 140.8c3.2 67.2 57.6 118.4 124.8 118.4 3.2 3.2 3.2 0 6.4 0v0 0zM883.2 454.4h-342.4c3.2 38.4 22.4 124.8 105.6 124.8h153.6c0 0 76.8-6.4 83.2-124.8v0zM486.4 454.4h-342.4c3.2 38.4 22.4 124.8 105.6 124.8h150.4c9.6 0 80-6.4 86.4-124.8v0zM976 214.4c0-28.8-22.4-51.2-51.2-51.2h-822.4c-28.8 0-51.2 22.4-51.2 51.2v137.6c0 28.8 22.4 51.2 51.2 51.2h822.4c28.8 0 51.2-22.4 51.2-51.2v0c0 0 0-137.6 0-137.6z" />
<glyph unicode="&#xe946;" glyph-name="basic-itens" d="M358.4 723.2v236.8h-268.8v-233.6l-64-710.4v-3.2c0-35.2 28.8-64 60.8-67.2v0h268.8c3.2 0 3.2 0 6.4 0 35.2 3.2 60.8 32 60.8 67.2v0 6.4l-64 704zM156.8 896h137.6v-137.6h-137.6v137.6zM355.2 16h-262.4l60.8 675.2h140.8l60.8-675.2zM566.4 960h-140.8v-339.2h124.8l-54.4-224v-451.2h67.2v438.4l67.2 268.8v246.4c-6.4 32-28.8 60.8-64 60.8v0zM560 691.2h-67.2v204.8h67.2v-204.8zM931.2 960h-236.8v-67.2h236.8v-67.2h-236.8v-67.2h236.8v-67.2h-236.8v-67.2h236.8v-67.2h-236.8v-67.2h236.8v-67.2h-236.8v-67.2h236.8v-67.2h-236.8v-67.2h236.8v-67.2h-236.8v-67.2h236.8v-67.2h-236.8v-83.2h243.2c35.2 3.2 60.8 32 60.8 67.2v0 0 896c-3.2 32-28.8 60.8-67.2 60.8v0 0z" />
<glyph unicode="&#xe947;" glyph-name="beach-view" d="M288 352c16 0 32 12.8 32 32v0c0 108.8 89.6 198.4 198.4 198.4v0c108.8 0 198.4-89.6 198.4-198.4v0c0-16 12.8-32 32-32v0c16 0 32 12.8 32 32v0c0 144-118.4 262.4-262.4 262.4v0c-144 0-262.4-118.4-262.4-262.4v0 0c-3.2-19.2 16-32 32-32v0 0zM220.8 384c0 16-12.8 32-32 32h-156.8c-16 0-32-12.8-32-32v0c0-16 12.8-32 32-32v0h160c16 0 28.8 12.8 28.8 32v0zM992 416h-160c-16 0-32-12.8-32-32v0 0c0-16 12.8-32 32-32h160c16 0 32 12.8 32 32v0c0 19.2-12.8 32-32 32v0zM265.6 595.2c6.4-6.4 12.8-9.6 22.4-9.6v0 0 0c9.6 0 16 3.2 22.4 9.6v0c6.4 6.4 9.6 12.8 9.6 22.4s-3.2 16-9.6 22.4l-112 112c-6.4 6.4-12.8 9.6-22.4 9.6s-16-3.2-25.6-9.6v0c-3.2-3.2-9.6-12.8-9.6-22.4 0-6.4 6.4-16 9.6-19.2v0l115.2-115.2zM512 681.6c16 0 32 12.8 32 32v160c0 16-12.8 32-32 32v0c-16 0-32-12.8-32-32v-160c0-19.2 16-32 32-32v0zM736 585.6v0c9.6 0 16 3.2 22.4 9.6l112 112c3.2 3.2 9.6 12.8 9.6 22.4s-6.4 16-9.6 19.2v0c-6.4 6.4-12.8 9.6-22.4 9.6s-16 0-22.4-6.4v0l-112-112c-6.4-6.4-9.6-12.8-9.6-22.4s3.2-16 9.6-22.4v0c6.4-6.4 12.8-9.6 22.4-9.6v0 0 0zM953.6 262.4v0c-35.2 0-67.2-12.8-92.8-28.8v0c-12.8-12.8-32-19.2-54.4-19.2 0 0 0 0-3.2 0v0 0c-19.2 0-38.4 6.4-54.4 19.2v0c-22.4 19.2-57.6 28.8-89.6 28.8 0 0 0 0-3.2 0v0c0 0 0 0-3.2 0-32 0-67.2-12.8-89.6-28.8v0c-12.8-12.8-32-19.2-54.4-19.2 0 0 0 0-3.2 0v0c0 0 0 0-3.2 0-19.2 0-38.4 6.4-54.4 19.2v0c-22.4 19.2-57.6 28.8-89.6 28.8 0 0 0 0-3.2 0v0c0 0 0 0-3.2 0-32 0-67.2-12.8-89.6-28.8v0c-12.8-12.8-32-19.2-54.4-19.2 0 0 0 0-3.2 0v0 0c-19.2 0-38.4 6.4-54.4 19.2v0c-22.4 19.2-57.6 28.8-89.6 28.8 0 0 0 0-3.2 0v0c-16 0-32-12.8-32-32v0c0-16 12.8-32 32-32v0 0c19.2 0 38.4-6.4 54.4-19.2v0c25.6-16 60.8-28.8 92.8-28.8 0 0 0 0 3.2 0v0c0 0 0 0 3.2 0 32 0 67.2 12.8 89.6 28.8v0c12.8 12.8 32 19.2 54.4 19.2 0 0 0 0 3.2 0v0 0c19.2 0 38.4-6.4 54.4-19.2v0c22.4-19.2 57.6-28.8 89.6-28.8 0 0 0 0 3.2 0v0c0 0 0 0 3.2 0 32 0 67.2 12.8 89.6 28.8v0c12.8 12.8 32 19.2 54.4 19.2 0 0 0 0 3.2 0v0 0c19.2 0 38.4-6.4 54.4-19.2v0c22.4-19.2 57.6-28.8 89.6-28.8 0 0 0 0 3.2 0v0c0 0 0 0 3.2 0 32 0 67.2 12.8 89.6 28.8v0c12.8 12.8 32 19.2 54.4 19.2v0 0c16 0 32 12.8 32 32v0c6.4 16-6.4 32-28.8 32v0 0zM780.8 105.6c-28.8 0-54.4-12.8-70.4-35.2v0c-9.6-12.8-12.8-12.8-19.2-12.8s-9.6 3.2-19.2 12.8c-16 22.4-38.4 35.2-70.4 35.2v0c-28.8 0-54.4-12.8-70.4-35.2v0c-9.6-12.8-12.8-12.8-19.2-12.8s-9.6 3.2-19.2 12.8c-16 22.4-38.4 35.2-70.4 35.2v0c-28.8 0-54.4-12.8-70.4-35.2v0c-9.6-12.8-12.8-12.8-19.2-12.8s-9.6 3.2-19.2 12.8c-16 22.4-38.4 35.2-70.4 35.2v0c-16 0-32-12.8-32-32v0c0-16 12.8-32 32-32v0c6.4 0 9.6-3.2 19.2-12.8 16-22.4 38.4-35.2 70.4-35.2v0c28.8 0 54.4 12.8 70.4 35.2v0c9.6 12.8 12.8 12.8 19.2 12.8s9.6-3.2 19.2-12.8c16-22.4 38.4-35.2 70.4-35.2v0c28.8 0 54.4 12.8 70.4 35.2v0c9.6 12.8 12.8 12.8 19.2 12.8s9.6-3.2 19.2-12.8c16-22.4 38.4-35.2 70.4-35.2v0c28.8 0 54.4 12.8 70.4 35.2v0c9.6 12.8 12.8 12.8 19.2 12.8 16 0 32 12.8 32 32v0c0 19.2-16 32-32 32v0z" />
<glyph unicode="&#xe948;" glyph-name="beach" d="M835.2 441.6l-99.2-99.2h-240v214.4h400c6.4 0 12.8 3.2 19.2 9.6v0c3.2 3.2 6.4 9.6 6.4 16v3.2c-28.8 211.2-211.2 374.4-425.6 374.4-6.4 0-16 0-22.4 0v0c-6.4 0-12.8 0-19.2 0-224 0-406.4-160-441.6-371.2v-6.4c0-6.4 3.2-12.8 6.4-16v0c3.2-6.4 12.8-9.6 19.2-9.6h406.4v-214.4h-320c-60.8 0-112-51.2-112-112v0c0-60.8 51.2-112 112-112h48l-38.4-144c0-3.2 0-3.2 0-6.4 0-12.8 6.4-22.4 19.2-28.8v0c6.4-3.2 6.4-3.2 9.6-3.2v0 0c12.8 0 22.4 6.4 22.4 19.2v0l41.6 156.8h448l41.6-156.8c3.2-9.6 12.8-19.2 28.8-19.2v0 0c3.2 0 3.2 0 6.4 0v0c9.6 3.2 19.2 12.8 19.2 28.8 0 3.2 0 3.2 0 6.4v0l-38.4 144c44.8 0 83.2 16 108.8 48v0l137.6 134.4c0 0 0 0 3.2 3.2 16 16 32 44.8 32 70.4 0 28.8-9.6 54.4-32 70.4v0c-16 16-44.8 32-70.4 32-32-6.4-57.6-16-76.8-32v0 0zM867.2 608h-220.8v3.2c0 108.8-38.4 208-99.2 288v0c160-19.2 288-137.6 320-291.2-3.2 3.2 0 0 0 0zM70.4 608c38.4 153.6 163.2 272 323.2 291.2h3.2c-64-80-102.4-176-102.4-288v-3.2h-224zM348.8 608c6.4 185.6 89.6 265.6 121.6 291.2 32-22.4 115.2-105.6 121.6-291.2h-243.2zM940.8 332.8l-137.6-137.6c-19.2-19.2-48-32-73.6-32v0h-604.8c-16 0-32 6.4-41.6 16v0c-9.6 9.6-16 28.8-16 44.8v0 0 0c0 16 6.4 32 16 41.6v0c9.6 9.6 28.8 16 41.6 16v0h624c6.4 0 12.8 3.2 16 6.4l105.6 105.6c9.6 9.6 19.2 12.8 35.2 12.8s22.4-6.4 35.2-12.8v0c9.6-9.6 12.8-19.2 12.8-35.2 3.2-3.2-3.2-16-12.8-25.6v0 0z" />
<glyph unicode="&#xe949;" glyph-name="calendar" d="M499.2 467.2c-19.2 19.2-48 32-73.6 32-3.2 0-3.2 0-6.4 0v0c-3.2 0-3.2 0-6.4 0-32 0-57.6-12.8-76.8-32v0c-19.2-22.4-32-51.2-32-80v0c0-6.4 0-19.2 0-38.4s0-32 0-38.4c0-32 12.8-57.6 32-80v0c19.2-19.2 48-32 73.6-32 3.2 0 6.4 0 6.4 0v0c3.2 0 3.2 0 6.4 0 32 0 54.4 12.8 73.6 32v0c19.2 22.4 32 51.2 32 80v0c0 16 0 25.6 0 38.4s0 22.4 0 38.4c3.2 28.8-9.6 57.6-28.8 80v0 0zM470.4 307.2v0c0-19.2-3.2-35.2-16-51.2v0c-6.4-12.8-22.4-16-35.2-16h-6.4c-16 0-25.6 6.4-35.2 16v0c-6.4 12.8-16 25.6-16 48 0 0 0 0 0 3.2v0c0 6.4 0 19.2 0 38.4s0 25.6 0 35.2c0 0 0 0 0 3.2 0 16 3.2 32 16 48v0c6.4 12.8 22.4 19.2 35.2 19.2 0 0 0 0 3.2 0v0c0 0 0 0 3.2 0 16 0 25.6-6.4 35.2-19.2v0c6.4-12.8 16-25.6 16-48 0 0 0 0 0-3.2v0c0-6.4 0-19.2 0-35.2 0-19.2 0-28.8 0-38.4v0zM710.4 489.6h-38.4c-3.2 0-6.4 0-12.8-3.2v0l-92.8-73.6c-3.2 0-3.2-3.2-3.2-6.4v0c0-3.2 0-3.2 3.2-6.4v0l19.2-22.4c0-3.2 3.2-3.2 6.4-3.2v0 0 0c3.2 0 3.2 0 6.4 3.2v0l60.8 51.2v-217.6c0-3.2 0-3.2 3.2-6.4v0c0 0 3.2-3.2 6.4-3.2v0h38.4c3.2 0 3.2 0 6.4 3.2v0c0 0 3.2 3.2 3.2 6.4v0 0 275.2c0 3.2 0 3.2-3.2 6.4v0c3.2-3.2 0-3.2-3.2-3.2v0 0 0zM774.4 870.4v41.6c0 25.6-19.2 48-48 48v0c-25.6 0-48-19.2-48-48v-41.6h-329.6v41.6c0 25.6-19.2 48-48 48v0c-25.6 0-48-19.2-48-48v-41.6c-115.2 0-204.8-92.8-204.8-208v-515.2c0-118.4 92.8-211.2 208-211.2h512c115.2 0 208 92.8 208 208v518.4c0 115.2-86.4 204.8-201.6 208v0zM902.4 134.4c0-67.2-54.4-124.8-124.8-124.8h-537.6c-67.2 0-124.8 54.4-124.8 124.8v544c3.2 67.2 57.6 121.6 124.8 121.6v0-19.2c0-25.6 22.4-51.2 51.2-51.2v0c25.6 0 51.2 22.4 51.2 51.2v16h352v-19.2c0-25.6 22.4-51.2 51.2-51.2v0c25.6 0 51.2 22.4 51.2 51.2v0 19.2c67.2-3.2 115.2-57.6 115.2-121.6v0l-9.6-540.8zM732.8 662.4h-441.6c-12.8 0-22.4-16-22.4-35.2s12.8-35.2 22.4-35.2h441.6c12.8 0 22.4 16 22.4 35.2s-9.6 35.2-22.4 35.2z" />
<glyph unicode="&#xe94a;" glyph-name="camera" d="M182.4 716.8c22.4 0 38.4 19.2 38.4 38.4v0c0 19.2-16 35.2-35.2 35.2v0c-22.4 0-38.4-16-38.4-35.2v0c0-19.2 16-38.4 35.2-38.4v0zM844.8 864v9.6c-3.2 38.4-35.2 67.2-73.6 67.2v0h-700.8c-38.4-6.4-67.2-38.4-67.2-76.8v0 0-403.2c3.2-38.4 35.2-67.2 73.6-67.2h115.2c16-70.4 70.4-124.8 137.6-140.8v0c-16-48-54.4-76.8-105.6-76.8v0h-150.4v147.2h-73.6v-364.8h73.6v147.2h156.8c86.4 3.2 156.8 67.2 172.8 147.2v0c73.6 16 131.2 70.4 144 144v0h230.4c38.4 3.2 67.2 35.2 67.2 73.6v0 0 54.4l182.4-73.6v432l-182.4-73.6v54.4zM364.8 316.8c-60.8 0-108.8 51.2-108.8 108.8v0 0c0 60.8 51.2 108.8 108.8 108.8v0c60.8 0 108.8-51.2 108.8-108.8v0c6.4-60.8-44.8-108.8-108.8-108.8v0zM771.2 464h-220.8c-16 73.6-70.4 128-140.8 144v0c-12.8 3.2-22.4 3.2-35.2 3.2-89.6 0-163.2-60.8-179.2-144v0h-121.6v396.8h697.6v-400zM953.6 774.4v-220.8l-108.8 41.6v137.6l108.8 41.6z" />
<glyph unicode="&#xe94b;" glyph-name="car" d="M364.8 400h-144c-19.2 0-35.2-12.8-35.2-35.2 0-19.2 12.8-35.2 35.2-35.2h144c19.2 0 35.2 12.8 35.2 35.2 0 16-16 35.2-35.2 35.2zM857.6 364.8c0 19.2-12.8 35.2-35.2 35.2h-144c-19.2 0-35.2-12.8-35.2-35.2 0-19.2 12.8-35.2 35.2-35.2h144c22.4 0 35.2 16 35.2 35.2zM1014.4 640c-6.4 9.6-16 16-25.6 16-6.4 3.2-12.8 3.2-16 0l-99.2-54.4-48 198.4c-12.8 60.8-64 102.4-128 102.4h-384c-64-3.2-118.4-48-128-108.8l-38.4-192-99.2 54.4c-3.2 3.2-9.6 3.2-12.8 3.2-12.8 0-22.4-6.4-32-19.2-3.2-6.4-3.2-9.6-3.2-19.2 0-16 9.6-25.6 16-32l105.6-57.6-83.2-108.8v-364.8c0-38.4 32-67.2 67.2-67.2h176c38.4 0 67.2 32 67.2 67.2v54.4h329.6v-54.4c0-38.4 32-67.2 67.2-67.2h185.6c38.4 0 67.2 32 67.2 67.2v384l-96 96 99.2 54.4c12.8 6.4 19.2 16 19.2 32 0 0 0 9.6-6.4 16zM208 579.2l41.6 201.6c6.4 32 32 51.2 64 51.2h384c32 0 51.2-19.2 57.6-51.2l48-201.6h-595.2zM684.8 192h-355.2c-12.8 0-32-3.2-41.6-16-9.6-9.6-16-25.6-16-41.6v-67.2h-176v342.4l86.4 108.8h646.4l96-96 3.2-352h-185.6v67.2c0 28.8-25.6 54.4-57.6 54.4z" />
<glyph unicode="&#xe94c;" glyph-name="case" d="M857.6 732.8h-160v51.2c0 64-51.2 115.2-115.2 115.2h-156.8c-64 0-115.2-51.2-115.2-115.2v-51.2h-144c-92.8 0-166.4-76.8-166.4-166.4v-396.8c0-96 76.8-169.6 166.4-169.6h688c92.8 0 166.4 76.8 166.4 166.4v400c3.2 92.8-70.4 166.4-163.2 166.4zM275.2 672v-611.2h-108.8c-60.8 0-105.6 48-105.6 105.6v400c0 57.6 44.8 105.6 105.6 105.6h108.8zM371.2 732.8v51.2c0 28.8 22.4 54.4 54.4 54.4h156.8c28.8 0 54.4-22.4 54.4-54.4v-51.2h-265.6zM780.8 246.4h6.4c28.8 0 54.4 22.4 54.4 54.4v41.6c0 28.8-22.4 54.4-54.4 54.4h-6.4v275.2h76.8c60.8 0 105.6-48 105.6-105.6v-396.8c0-60.8-48-105.6-105.6-105.6h-76.8v182.4zM576 336v-41.6c0-28.8 22.4-54.4 54.4-54.4h92.8v-188.8h-387.2v620.8h384v-281.6h-92.8c-28.8 0-51.2-22.4-51.2-54.4z" />
<glyph unicode="&#xe94d;" glyph-name="change-log" d="M163.2 521.6h169.6c16 0 35.2 12.8 35.2 35.2v0c0 16-12.8 35.2-35.2 35.2v0h-169.6c-19.2 0-35.2-16-35.2-35.2v0c0-22.4 12.8-35.2 35.2-35.2v0zM163.2 329.6h278.4c16 0 35.2 12.8 35.2 35.2v0c0 16-12.8 35.2-35.2 35.2v0h-278.4c-19.2-3.2-35.2-16-35.2-35.2v0c0-19.2 12.8-35.2 35.2-35.2v0zM675.2 204.8h-515.2c-16 0-35.2-12.8-35.2-35.2v0c0-16 12.8-35.2 35.2-35.2v0h518.4c16 0 35.2 12.8 35.2 35.2v0c-3.2 22.4-16 35.2-38.4 35.2v0zM704 950.4c-99.2 0-185.6-44.8-243.2-118.4v0h-284.8c-96 0-176-80-176-176v-534.4c0-96 80-176 176-176h483.2c96 0 176 80 176 176v220.8c108.8 51.2 188.8 163.2 188.8 291.2v0c-3.2 172.8-144 313.6-320 316.8v0zM768 121.6c0-60.8-48-108.8-108.8-108.8h-483.2c-60.8 0-108.8 48-108.8 108.8v534.4c-3.2 64 48 112 108.8 112h240c-19.2-41.6-32-86.4-32-134.4v0c0-176 140.8-316.8 316.8-316.8v0 0c25.6 0 44.8 3.2 64 6.4h-3.2l6.4-201.6zM704 377.6c-137.6 0-252.8 115.2-252.8 252.8v0c0 137.6 115.2 252.8 252.8 252.8v0c137.6 0 252.8-115.2 252.8-252.8v0c-3.2-140.8-112-252.8-252.8-252.8v0 0zM704 707.2c-16 0-35.2-12.8-35.2-35.2v0-150.4c0-16 12.8-35.2 35.2-35.2v0c16 0 35.2 12.8 35.2 35.2v0 153.6c0 19.2-19.2 32-35.2 32v0zM707.2 800c-19.2 0-38.4-16-38.4-38.4v0c0-19.2 16-38.4 38.4-38.4v0c19.2 0 38.4 16 38.4 38.4v0c-3.2 22.4-19.2 38.4-38.4 38.4v0z" />
<glyph unicode="&#xe94e;" glyph-name="children" d="M1024 393.6c0 67.2-54.4 121.6-121.6 121.6h-3.2c-48 153.6-176 262.4-336 281.6 12.8 19.2 41.6 44.8 99.2 44.8h3.2c16 0 35.2 12.8 35.2 35.2s-12.8 35.2-35.2 35.2c-83.2 0-128-32-153.6-64-28.8 35.2-73.6 67.2-153.6 64-19.2 0-35.2-16-35.2-35.2s12.8-35.2 35.2-35.2c57.6 0 89.6-19.2 102.4-41.6-166.4-16-297.6-128-345.6-284.8-64-3.2-115.2-57.6-115.2-121.6s51.2-118.4 115.2-121.6c54.4-169.6 211.2-284.8 390.4-284.8v0c179.2 0 336 115.2 390.4 284.8h3.2c35.2 0 64 12.8 89.6 38.4 25.6 22.4 35.2 51.2 35.2 83.2v0zM64 393.6c0 22.4 12.8 41.6 35.2 51.2-3.2-16-3.2-35.2-3.2-51.2s0-35.2 3.2-51.2c-22.4 9.6-35.2 32-35.2 51.2zM505.6 54.4v0c-160 0-294.4 108.8-332.8 262.4-6.4 28.8-9.6 54.4-9.6 83.2s3.2 54.4 9.6 83.2c38.4 153.6 172.8 262.4 329.6 262.4v0c0 0 0 0 3.2 0v0c160 0 294.4-108.8 332.8-262.4v0c6.4-28.8 9.6-51.2 9.6-76.8 0-28.8-3.2-51.2-9.6-76.8v0c-35.2-166.4-172.8-275.2-332.8-275.2zM956.8 393.6c0-12.8-6.4-32-16-41.6-6.4-6.4-16-12.8-28.8-12.8 3.2 16 3.2 38.4 3.2 54.4s0 38.4-3.2 54.4c22.4-3.2 44.8-28.8 44.8-54.4v0zM496 489.6c0 19.2-12.8 35.2-35.2 35.2-19.2 0-35.2-12.8-35.2-35.2s-12.8-41.6-38.4-41.6c-22.4 0-41.6 16-41.6 41.6 0 19.2-12.8 35.2-35.2 35.2v0c-19.2 0-35.2-12.8-35.2-35.2 0-57.6 48-108.8 108.8-108.8s112 48 112 108.8zM697.6 521.6c-19.2 0-35.2-12.8-35.2-35.2s-16-38.4-38.4-38.4-41.6 16-41.6 41.6c0 19.2-12.8 35.2-35.2 35.2s-35.2-12.8-35.2-35.2c0-60.8 48-108.8 108.8-108.8s108.8 48 108.8 108.8c3.2 16-12.8 32-32 32zM624 278.4c-16 9.6-38.4 3.2-44.8-12.8-12.8-28.8-44.8-44.8-73.6-48-35.2 0-64 16-83.2 48-6.4 16-32 22.4-44.8 12.8-16-6.4-22.4-28.8-12.8-44.8 28.8-51.2 83.2-86.4 140.8-86.4 3.2 0 3.2 0 6.4 0 54.4 3.2 105.6 35.2 131.2 83.2 3.2 16-3.2 41.6-19.2 48z" />
<glyph unicode="&#xe94f;" glyph-name="comment" d="M892.8 486.4c-16 0-32-12.8-32-32v0 0-188.8c0-25.6-22.4-51.2-54.4-51.2 0 0 0 0-3.2 0v0h-278.4c-12.8 0-22.4-3.2-32-12.8v0l-179.2-153.6v115.2c0 25.6-22.4 51.2-51.2 51.2v0 0h-134.4c-35.2 0-67.2 28.8-70.4 67.2v0 454.4c0 35.2 32 67.2 70.4 67.2h435.2c16 0 32 12.8 32 32v0c0 16-12.8 32-32 32v0h-432c-70.4 3.2-131.2-54.4-131.2-128v0-457.6c3.2-73.6 60.8-128 131.2-128h112v-131.2c3.2-28.8 25.6-51.2 54.4-51.2v0h3.2c12.8 0 22.4 6.4 28.8 12.8v0l198.4 169.6h275.2c64 0 112 51.2 115.2 112v0 188.8c3.2 16-9.6 32-25.6 32v0 0zM854.4 924.8c-92.8 0-169.6-76.8-169.6-169.6v0c0-92.8 76.8-169.6 169.6-169.6v0c92.8 0 169.6 76.8 169.6 169.6v0c0 96-76.8 169.6-169.6 169.6v0zM854.4 656c-57.6 0-102.4 44.8-102.4 102.4v0c0 57.6 44.8 102.4 102.4 102.4v0c57.6 0 102.4-44.8 102.4-102.4v0c0-54.4-44.8-102.4-102.4-102.4v0 0z" />
</font>
</defs>
</svg>
